<?xml version="1.0" standalone="no"?>
<!DOCTYPE svg PUBLIC "-//W3C//DTD SVG 1.1//EN" "http://www.w3.org/Graphics/SVG/1.1/DTD/svg11.dtd" >
<svg xmlns="http://www.w3.org/2000/svg">
<metadata>Generated by IcoMoon</metadata>
<defs>
<font id="lato-medium-webfont" horiz-adv-x="1024">
<font-face units-per-em="1024" ascent="960" descent="-64" />
<missing-glyph horiz-adv-x="1024" />
<glyph unicode="&#x20;" horiz-adv-x="256" d="" />
<glyph unicode="&#x21;" glyph-name="uni21" horiz-adv-x="278" d="M185.344 870.4v-292.864q0-23.040-1.024-45.056t-2.56-44.288-4.096-45.824-5.632-49.664h-65.536q-3.072 26.112-5.632 49.664t-4.096 45.824-2.56 44.288-1.024 45.056v292.864h92.16zM71.68 194.56q0 13.824 4.864 25.856t13.824 21.248 20.992 14.336 26.368 5.12q13.824 0 25.856-5.12t20.992-14.336 14.080-21.248 5.12-25.856q0-14.336-5.12-26.368t-14.080-20.992-20.992-14.080-25.856-5.12q-14.336 0-26.368 5.12t-20.992 14.080-13.824 20.992-4.864 26.368z" />
<glyph unicode="&#x22;" glyph-name="uni22" horiz-adv-x="383" d="M147.456 870.4v-147.968l-8.704-79.872q-2.56-17.408-9.984-26.88t-23.808-9.472q-14.848 0-22.528 9.472t-10.752 26.88l-8.704 79.872v147.968h84.48zM321.024 870.4v-147.968l-8.704-79.872q-2.56-17.408-9.984-26.88t-23.808-9.472q-14.848 0-22.528 9.472t-10.752 26.88l-8.704 79.872v147.968h84.48z" />
<glyph unicode="&#x23;" glyph-name="uni23" horiz-adv-x="594" d="M408.576 350.72l-41.984-215.040h-44.032q-7.168 0-13.312 3.328t-10.24 8.96-5.632 13.056 0.512 16.128l34.816 173.568h-122.88l-34.816-178.176q-3.584-19.968-16.128-28.416t-28.416-8.448h-43.008l41.984 215.040h-71.68q-14.848 0-21.76 9.216t-3.84 31.232l5.12 31.232h102.912l31.744 161.792h-116.736l7.168 40.96q2.56 15.872 12.288 23.296t31.232 7.424h76.288l36.352 180.224q3.072 16.384 14.848 25.344t27.648 8.96h44.032l-42.496-214.528h122.88l42.496 214.528h43.008q15.872 0 24.832-9.984t5.888-25.856l-36.352-178.688h108.032l-7.168-40.96q-2.56-15.36-12.288-23.040t-31.232-7.68h-67.584l-31.744-161.792h88.576q14.848 0 21.76-9.216t3.84-31.232l-4.608-31.232h-120.32zM216.576 422.4h122.88l31.744 161.792h-122.88z" />
<glyph unicode="&#x24;" glyph-name="uni24" horiz-adv-x="594" d="M248.832 129.536q-61.44 6.144-112.896 30.976t-88.32 63.232l29.184 44.544q4.096 5.632 10.752 9.728t14.336 4.096q9.728 0 22.272-9.472t30.208-21.504 41.984-23.552 58.112-16.128l18.944 264.192q-35.84 10.752-70.656 24.32t-62.208 35.584-44.288 55.296-16.896 83.456q0 37.888 14.592 73.472t43.008 63.488 69.888 45.824 94.72 19.968l5.12 72.192q1.024 10.24 8.192 18.176t18.944 7.936h35.84l-7.168-100.864q53.76-7.168 92.928-28.416t69.376-50.432l-23.552-35.84q-10.24-16.384-25.088-16.384-7.168 0-17.664 6.144t-25.088 14.336-33.536 16.384-43.008 12.288l-17.408-241.664q36.864-11.264 72.96-24.832t64.768-34.56 46.336-52.48 17.664-79.104q0-46.080-15.616-86.784t-45.056-71.68-72.448-50.176-98.304-22.784l-6.144-87.040q-1.024-10.24-8.192-18.176t-18.944-7.936h-35.84zM449.024 345.088q0 24.576-9.216 42.24t-24.832 30.72-36.864 22.528-45.312 17.152l-17.408-246.784q65.536 7.168 99.584 42.752t34.048 91.392zM171.008 683.52q0-23.552 8.448-41.216t23.040-30.976 34.56-23.296 43.008-18.176l15.36 223.744q-32.256-3.072-55.808-13.056t-38.912-24.832-22.528-33.28-7.168-38.912z" />
<glyph unicode="&#x25;" glyph-name="uni25" horiz-adv-x="824" d="M371.712 693.248q0-43.008-13.312-76.8t-36.096-57.344-52.48-35.84-62.464-12.288q-34.816 0-64.768 12.288t-51.712 35.84-34.304 57.344-12.544 76.8q0 44.032 12.544 78.336t34.304 58.112 51.712 36.096 64.768 12.288q35.328 0 65.28-12.288t51.968-36.096 34.56-58.112 12.544-78.336zM296.448 693.248q0 32.768-6.912 55.808t-19.2 37.376-28.416 20.736-34.56 6.4-34.304-6.4-27.648-20.736-18.688-37.376-6.912-55.808q0-32.256 6.912-54.784t18.688-36.608 27.648-20.48 34.304-6.4 34.56 6.4 28.416 20.48 19.2 36.608 6.912 54.784zM629.248 854.528q5.12 6.144 12.288 11.008t19.968 4.864h70.144l-538.624-719.36q-5.12-6.656-12.8-11.008t-17.92-4.352h-71.68zM779.776 309.248q0-43.008-13.312-76.8t-36.096-57.344-52.48-35.84-62.464-12.288q-34.816 0-64.768 12.288t-51.968 35.84-34.304 57.344-12.288 76.8q0 44.032 12.288 78.336t34.304 58.112 51.968 36.096 64.768 12.288 65.024-12.288 52.224-36.096 34.56-58.112 12.544-78.336zM704.512 309.248q0 32.768-6.912 55.808t-19.2 37.632-28.416 20.992-34.56 6.4-34.304-6.4-27.904-20.992-18.688-37.632-6.656-55.808q0-32.256 6.656-54.784t18.688-36.608 27.904-20.48 34.304-6.4 34.56 6.4 28.416 20.48 19.2 36.608 6.912 54.784z" />
<glyph unicode="&#x26;" glyph-name="uni26" horiz-adv-x="731" d="M342.016 878.592q40.96 0 74.752-13.056t58.112-35.072 38.4-50.432 16.128-59.136l-60.416-12.8q-8.704-2.048-15.616 2.048t-11.008 14.336q-4.096 13.312-11.776 27.392t-19.968 25.6-29.184 18.688-39.424 7.168q-25.088 0-45.056-8.192t-34.048-22.528-21.76-33.536-7.68-41.216q0-17.408 4.096-33.536t12.8-32.256 22.016-33.28 32.256-36.096l208.896-212.992q18.944 34.304 30.208 71.68t15.36 74.752q1.024 10.24 6.4 16.128t15.104 5.888h59.904q-1.024-60.416-19.2-118.272t-51.968-107.52l154.112-156.672h-94.72q-15.872 0-25.344 3.84t-20.736 15.616l-70.144 70.656q-48.128-45.568-110.592-71.936t-136.704-26.368q-40.96 0-80.64 14.080t-70.912 40.448-50.432 64.512-19.2 86.272q0 35.328 11.776 67.328t32.768 58.88 49.92 48.64 63.232 36.608q-30.208 39.424-44.544 76.8t-14.336 76.288q0 37.376 13.824 70.4t39.424 57.6 62.72 38.912 83.2 14.336zM281.6 206.336q55.296 0 99.84 19.712t78.336 52.992l-213.504 215.552q-52.224-28.672-77.824-68.096t-25.6-86.016q0-32.256 11.776-57.344t31.232-41.984 44.544-25.856 51.2-8.96z" />
<glyph unicode="&#x27;" glyph-name="uni27" horiz-adv-x="210" d="M147.456 870.4v-147.968l-8.704-79.872q-2.56-17.408-9.984-26.88t-23.808-9.472q-14.848 0-22.528 9.472t-10.752 26.88l-8.704 79.872v147.968h84.48z" />
<glyph unicode="&#x28;" glyph-name="uni28" horiz-adv-x="274" d="M129.024 457.216q0-108.544 27.648-211.712t80.384-195.84q4.096-8.192 4.864-14.592t-0.768-11.008-5.12-8.192-7.68-6.144l-43.008-26.112q-38.4 58.88-65.28 116.992t-43.52 116.48-24.32 118.016-7.68 122.112 7.68 122.368 24.32 118.272 43.52 116.48 65.28 116.992l43.008-26.112q4.096-2.56 7.68-6.144t5.12-8.192 0.768-11.008-4.864-14.592q-52.736-92.672-80.384-195.84t-27.648-212.224z" />
<glyph unicode="&#x29;" glyph-name="uni29" horiz-adv-x="274" d="M145.408 457.216q0 109.056-27.392 212.224t-80.128 195.84q-8.704 16.384-4.608 25.344t12.8 14.592l43.008 26.112q38.4-58.88 65.28-116.992t43.52-116.48 24.32-118.272 7.68-122.368-7.68-122.112-24.32-118.016-43.52-116.48-65.28-116.992l-43.008 26.112q-8.704 5.632-12.8 14.592t4.608 25.344q52.736 92.672 80.128 195.84t27.392 211.712z" />
<glyph unicode="&#x2a;" glyph-name="uni2A" horiz-adv-x="435" d="M193.536 574.976v99.328q0 10.24 1.28 18.944t4.864 16.896q-10.24-12.8-27.648-22.528l-86.528-50.176-23.552 40.448 86.528 50.688q9.216 5.12 17.92 8.192t17.92 4.096q-18.432 2.048-35.84 13.312l-87.040 51.2 23.552 40.96 87.040-51.2q18.432-10.752 29.184-25.088-4.096 8.704-5.888 17.92t-1.792 19.456v100.352h47.616v-99.328q0-10.752-1.536-20.224t-5.632-18.176q10.752 14.336 29.184 25.088l86.528 50.176 23.552-40.96-86.528-50.176q-8.704-5.12-17.408-8.704t-17.92-4.608q17.408-1.536 35.328-12.288l87.040-51.2-23.552-40.96-87.040 51.2q-9.728 5.632-17.152 11.264t-13.056 14.336q8.192-16.896 8.192-37.888v-100.352h-47.616z" />
<glyph unicode="&#x2b;" glyph-name="uni2B" horiz-adv-x="594" d="M336.384 733.696v-217.6h206.848v-73.728h-206.848v-218.112h-79.36v218.112h-205.824v73.728h205.824v217.6h79.36z" />
<glyph unicode="&#x2c;" glyph-name="uni2C" horiz-adv-x="233" d="M53.248 201.216q0 25.088 17.152 42.496t45.824 17.408q15.872 0 28.16-5.888t20.736-16.128 12.544-24.064 4.096-29.184q0-23.040-6.656-48.384t-19.456-50.176-31.488-48.384-42.24-43.008l-16.384 15.36q-4.096 4.096-5.632 7.424t-1.536 7.936q0 7.168 7.68 14.848 5.12 5.632 13.056 14.848t16.128 21.504 14.848 26.88 9.728 30.976h-4.608q-13.824 0-25.344 4.864t-19.456 13.824-12.544 20.992-4.608 25.856z" />
<glyph unicode="&#x2d;" glyph-name="uni2D" horiz-adv-x="381" d="M62.976 484.352h254.976v-82.432h-254.976v82.432z" />
<glyph unicode="&#x2e;" glyph-name="uni2E" horiz-adv-x="242" d="M54.784 194.56q0 13.824 5.12 25.856t13.824 21.248 20.992 14.336 26.112 5.12 25.856-5.12 20.992-14.336 14.080-21.248 5.12-25.856q0-14.336-5.12-26.368t-14.080-20.992-20.992-14.080-25.856-5.12-26.112 5.12-20.992 14.080-13.824 20.992-5.12 26.368z" />
<glyph unicode="&#x2f;" glyph-name="uni2F" horiz-adv-x="465" d="M126.976 126.464q-7.168-18.944-22.016-28.16t-30.72-9.216h-40.96l306.688 766.464q6.144 16.896 19.2 26.112t30.976 9.216h41.472z" />
<glyph unicode="&#x30;" glyph-name="uni30" horiz-adv-x="594" d="M564.224 503.296q0-96.256-20.736-166.912t-56.832-116.992-84.992-68.864-105.216-22.528-104.96 22.528-84.736 68.864-56.576 116.992-20.48 166.912 20.48 166.912 56.576 116.992 84.736 68.864 104.96 22.528 105.216-22.528 84.992-68.864 56.832-116.992 20.736-166.912zM463.36 503.296q0 82.944-13.824 139.264t-36.864 90.624-53.248 48.896-62.976 14.592-62.976-14.592-53.248-48.896-36.608-90.624-13.568-139.264q0-83.456 13.568-139.776t36.608-90.368 53.248-48.64 62.976-14.592 62.976 14.592 53.248 48.64 36.864 90.368 13.824 139.776z" />
<glyph unicode="&#x31;" glyph-name="uni31" horiz-adv-x="594" d="M126.464 209.92h156.16v487.936q0 22.528 1.536 46.592l-126.464-108.032q-7.168-5.632-14.080-7.168t-13.056-0.256-11.264 4.352-7.68 6.656l-30.208 42.496 219.648 189.44h78.848v-662.016h142.848v-74.24h-396.288v74.24z" />
<glyph unicode="&#x32;" glyph-name="uni32" horiz-adv-x="594" d="M303.104 878.592q47.616 0 88.064-14.080t70.144-40.448 46.592-64.512 16.896-86.272q0-40.96-12.032-76.032t-32.768-66.816-48.128-61.952-58.112-60.928l-188.928-192.512q20.992 5.632 42.496 9.216t40.96 3.584h236.544q15.872 0 25.088-9.216t9.216-24.064v-58.88h-492.544v33.28q0 10.24 4.352 21.248t13.568 19.712l232.96 234.496q29.184 29.696 52.736 56.832t40.448 54.272 25.856 55.040 8.96 59.648q0 31.232-9.728 54.784t-26.88 39.424-40.704 23.552-50.688 7.68-49.664-7.936-40.192-22.016-29.696-33.28-17.152-42.24q-6.656-18.944-17.664-25.344t-30.976-3.328l-51.2 9.216q7.68 50.688 28.416 89.6t52.48 65.28 72.704 39.68 88.576 13.312z" />
<glyph unicode="&#x33;" glyph-name="uni33" horiz-adv-x="594" d="M306.688 878.592q47.616 0 87.040-13.568t67.84-38.4 44.288-59.392 15.872-76.544q0-35.328-8.704-62.72t-25.088-47.872-39.68-34.56-52.48-23.296q71.168-19.456 106.752-63.488t35.584-111.104q0-51.712-19.456-92.416t-52.736-69.12-78.080-43.52-95.488-15.104q-57.856 0-99.328 14.336t-70.656 39.68-48.128 60.672-31.744 77.312l41.984 17.92q16.384 7.168 31.744 4.096t22.528-17.92 17.408-34.304 27.136-37.12 42.752-29.696 65.28-12.032q37.376 0 65.536 12.288t46.848 31.744 27.904 43.264 9.216 47.36q0 29.184-7.424 53.248t-27.648 41.472-56.32 27.136-93.44 9.728v70.656q47.104 0.512 79.616 9.984t52.992 26.112 29.44 39.68 8.96 50.688q0 30.72-9.472 53.504t-26.368 37.888-39.936 22.784-50.176 7.68-49.92-7.936-40.448-22.016-29.696-33.28-17.152-42.24q-7.168-18.944-17.664-25.344t-30.464-3.328l-51.2 9.216q7.168 50.688 28.16 89.6t52.736 65.28 72.704 39.68 88.576 13.312z" />
<glyph unicode="&#x34;" glyph-name="uni34" horiz-adv-x="594" d="M457.216 402.944h108.032v-56.32q0-8.704-5.376-14.592t-15.616-5.888h-87.040v-190.464h-84.992v190.464h-323.584q-10.752 0-18.432 6.144t-9.728 15.872l-9.728 49.664 355.84 473.088h90.624v-467.968zM372.224 694.784q0 13.824 1.024 30.208t3.584 33.792l-261.12-355.84h256.512v291.84z" />
<glyph unicode="&#x35;" glyph-name="uni35" horiz-adv-x="594" d="M504.32 828.416q0-20.992-13.056-34.304t-43.776-13.312h-226.304l-32.256-185.856q55.808 12.288 103.424 12.288 57.344 0 101.376-17.152t73.728-47.104 44.8-70.656 15.104-87.808q0-58.368-20.48-105.984t-56.064-81.152-84.224-51.712-104.96-18.176q-32.768 0-62.72 6.4t-56.064 17.408-48.128 25.344-39.424 29.696l29.696 41.984q9.728 13.824 25.6 13.824 10.752 0 23.552-7.936t30.976-17.664 43.008-17.664 58.624-7.936q37.376 0 67.584 12.032t51.456 34.304 32.512 53.504 11.264 69.12q0 33.792-9.984 60.672t-29.44 46.080-49.152 29.44-68.608 10.24q-54.784 0-117.248-19.456l-60.928 17.92 59.392 345.6h350.72v-41.984z" />
<glyph unicode="&#x36;" glyph-name="uni36" horiz-adv-x="594" d="M246.784 596.48q-9.216-11.776-17.92-22.528t-16.384-21.504q25.088 16.384 55.552 25.6t65.792 9.216q44.032 0 83.456-14.336t69.376-42.24 47.36-68.864 17.408-93.696q0-50.688-18.432-94.72t-51.968-76.288-80.128-50.944-102.912-18.688-101.376 17.92-77.056 50.944-49.152 79.616-17.152 103.936q0 48.64 21.248 103.168t67.328 116.48l184.832 247.296q7.168 10.24 20.992 16.896t30.72 6.656h86.528zM146.432 363.008q0-34.304 9.984-62.72t29.184-48.896 47.104-31.744 63.232-11.264q35.84 0 65.024 11.52t49.92 32 32 48.384 11.264 60.672q0 35.328-11.008 63.744t-31.232 47.872-48.128 29.952-61.696 10.496q-35.84 0-64.768-12.032t-49.152-32.768-30.976-47.872-10.752-57.344z" />
<glyph unicode="&#x37;" glyph-name="uni37" horiz-adv-x="594" d="M554.496 870.4v-43.008q0-18.944-4.096-30.72t-8.192-20.48l-300.032-606.208q-7.168-14.336-19.456-24.32t-33.28-9.984h-69.632l304.64 598.016q13.312 26.624 30.72 47.104h-377.856q-9.728 0-16.64 7.168t-6.912 16.384v66.048h500.736z" />
<glyph unicode="&#x38;" glyph-name="uni38" horiz-adv-x="594" d="M296.96 127.488q-55.296 0-101.12 14.848t-78.592 42.24-50.944 66.048-18.176 86.784q0 70.144 36.096 115.712t104.704 65.536q-57.344 21.504-86.528 64.256t-29.184 102.144q0 40.96 16.128 76.288t45.568 61.44 70.656 40.96 91.392 14.848 91.392-14.848 70.656-40.96 45.568-61.44 16.128-76.288q0-59.392-29.44-102.144t-86.784-64.256q68.608-19.968 104.96-65.536t36.352-115.712q0-48.128-18.176-86.784t-50.944-66.048-78.592-42.24-101.12-14.848zM296.96 204.8q35.328 0 62.976 9.984t46.848 27.904 29.184 42.496 9.984 54.272q0 36.352-12.032 62.464t-32.512 42.752-47.616 24.576-56.832 7.936q-30.208 0-57.088-7.936t-47.36-24.576-32.512-42.752-12.032-62.464q0-29.696 9.984-54.272t29.184-42.496 46.848-27.904 62.976-9.984zM296.96 555.008q35.328 0 59.648 10.752t39.68 28.672 22.272 40.96 6.912 47.616-7.936 46.592-24.064 38.656-40.192 26.112-56.32 9.472-56.32-9.472-40.192-26.112-24.064-38.656-7.936-46.592 6.912-47.616 22.272-40.96 39.68-28.672 59.648-10.752z" />
<glyph unicode="&#x39;" glyph-name="uni39" horiz-adv-x="594" d="M354.304 427.008q10.24 13.824 19.712 26.624t18.176 25.088q-27.648-21.504-62.208-32.256t-72.96-10.752q-40.96 0-78.080 13.824t-65.28 40.704-45.056 66.304-16.896 90.112q0 48.128 17.92 90.624t50.432 73.728 77.568 49.408 98.816 18.176q53.248 0 96.768-17.408t74.24-48.896 47.616-75.264 16.896-96.512q0-32.256-5.888-61.184t-16.896-56.32-26.88-54.272-35.84-55.040l-177.152-254.976q-6.656-10.24-19.968-16.64t-29.696-6.4h-89.6zM438.784 651.776q0 33.792-10.752 60.672t-29.696 45.824-45.568 29.184-57.856 10.24q-32.768 0-59.648-10.752t-46.080-29.696-29.696-45.568-10.496-57.856q0-68.608 37.376-105.984t103.424-37.376q35.84 0 63.488 11.52t46.592 30.976 28.928 45.056 9.984 53.76z" />
<glyph unicode="&#x3a;" glyph-name="uni3A" horiz-adv-x="257" d="M62.464 194.56q0 13.824 5.12 25.856t13.824 21.248 20.992 14.336 26.112 5.12 25.856-5.12 20.992-14.336 14.080-21.248 5.12-25.856q0-14.336-5.12-26.368t-14.080-20.992-20.992-14.080-25.856-5.12-26.112 5.12-20.992 14.080-13.824 20.992-5.12 26.368zM62.464 574.976q0 13.824 5.12 25.856t13.824 21.248 20.992 14.336 26.112 5.12 25.856-5.12 20.992-14.336 14.080-21.248 5.12-25.856q0-14.336-5.12-26.368t-14.080-20.992-20.992-14.080-25.856-5.12-26.112 5.12-20.992 14.080-13.824 20.992-5.12 26.368z" />
<glyph unicode="&#x3b;" glyph-name="uni3B" horiz-adv-x="269" d="M71.168 201.216q0 25.088 17.152 42.496t45.824 17.408q15.872 0 28.16-5.888t20.736-16.128 12.544-24.064 4.096-29.184q0-23.040-6.656-48.384t-19.456-50.176-31.488-48.384-42.24-43.008l-16.384 15.36q-4.096 4.096-5.632 7.424t-1.536 7.936q0 7.168 7.68 14.848 5.12 5.632 13.056 14.848t16.128 21.504 14.848 26.88 9.728 30.976h-4.608q-13.824 0-25.344 4.864t-19.456 13.824-12.544 20.992-4.608 25.856zM68.096 574.976q0 13.824 5.12 25.856t13.824 21.248 20.992 14.336 26.112 5.12 25.856-5.12 20.992-14.336 14.080-21.248 5.12-25.856q0-14.336-5.12-26.368t-14.080-20.992-20.992-14.080-25.856-5.12-26.112 5.12-20.992 14.080-13.824 20.992-5.12 26.368z" />
<glyph unicode="&#x3c;" glyph-name="uni3C" horiz-adv-x="594" d="M81.92 500.224l397.312 206.848v-69.632q0-8.704-4.352-15.616t-14.592-12.544l-222.208-112.64q-10.24-5.632-22.016-9.472t-24.576-6.912q12.8-3.072 24.576-6.912t22.016-9.472l222.208-113.152q10.24-5.12 14.592-12.032t4.352-15.616v-69.632l-397.312 206.848v39.936z" />
<glyph unicode="&#x3d;" glyph-name="uni3D" horiz-adv-x="594" d="M75.776 430.592h442.368v-73.728h-442.368v73.728zM75.776 604.16h442.368v-73.728h-442.368v73.728z" />
<glyph unicode="&#x3e;" glyph-name="uni3E" horiz-adv-x="594" d="M512 460.288l-397.312-206.848v69.632q0 8.704 4.352 15.616t14.592 12.032l222.208 113.152q10.24 5.12 21.76 9.216t24.832 7.168q-13.312 3.072-24.832 6.912t-21.76 9.472l-222.208 112.64q-10.24 5.632-14.592 12.544t-4.352 15.616v69.632l397.312-206.848v-39.936z" />
<glyph unicode="&#x3f;" glyph-name="uni3F" horiz-adv-x="460" d="M40.448 804.864q16.384 14.848 35.84 28.16t42.496 23.552 49.664 16.128 57.856 5.888q40.96 0 75.776-11.776t60.16-33.536 39.68-52.736 14.336-69.376q0-38.912-11.52-67.328t-28.928-49.408-38.144-36.608-38.912-29.44-31.488-27.392-15.36-30.464l-9.728-77.824h-66.56l-6.144 84.992q-2.56 23.040 8.192 40.448t28.16 32.512 38.144 29.44 38.912 32 30.464 40.192 12.288 53.248q0 21.504-8.448 38.912t-23.040 29.696-34.048 18.688-41.984 6.4q-30.72 0-52.736-7.424t-37.376-16.384-25.088-16.384-15.872-7.424q-13.824 0-20.48 11.776zM140.288 194.56q0 13.824 5.12 25.856t13.824 21.248 20.992 14.336 26.112 5.12 25.856-5.12 20.992-14.336 14.080-21.248 5.12-25.856q0-14.336-5.12-26.368t-14.080-20.992-20.992-14.080-25.856-5.12-26.112 5.12-20.992 14.080-13.824 20.992-5.12 26.368z" />
<glyph unicode="&#x40;" glyph-name="uni40" horiz-adv-x="858" d="M607.232 230.4q-38.912 0-64.256 18.688t-33.024 58.112q-29.696-39.936-64.512-57.6t-74.752-17.664q-30.72 0-53.504 10.752t-37.888 29.44-22.528 44.544-7.424 56.064q0 43.52 16.64 87.808t49.408 79.872 81.92 58.112 113.664 22.528q35.328 0 61.696-5.376t49.92-15.616l-48.128-185.856q-9.728-37.888-9.472-61.696t7.424-37.12 20.224-18.176 28.928-4.864q24.576 0 46.336 14.336t38.4 39.936 26.368 61.696 9.728 80.128q0 70.144-22.272 122.88t-61.44 87.808-92.672 52.736-115.968 17.664q-68.608 0-128-25.856t-103.68-71.68-69.632-108.288-25.344-135.68q0-86.528 27.136-152.064t74.24-109.824 110.592-66.56 136.704-22.272q77.824 0 137.216 16.64t101.888 42.24q10.24 6.144 18.688 3.84t12.032-12.544l13.824-35.84q-54.784-35.84-125.184-57.344t-158.464-21.504q-59.904 0-114.176 12.8t-100.864 37.12-84.48 60.16-64.512 81.92-41.216 102.144-14.592 121.088q0 55.296 14.080 107.008t39.68 96.768 61.696 82.176 80.384 63.744 95.232 41.216 106.752 14.592q47.104 0 92.416-10.496t85.76-30.464 74.24-49.664 58.368-67.84 38.144-84.992 13.568-101.632q0-55.296-15.616-102.656t-43.264-81.92-65.28-54.016-81.152-19.456zM390.144 295.936q15.36 0 31.232 4.864t30.208 17.408 26.624 33.536 20.992 53.248l38.4 149.504q-19.456 4.608-41.984 4.608-36.864 0-68.352-15.616t-54.016-41.472-35.328-59.136-12.8-68.096q0-35.84 16.384-57.344t48.64-21.504z" />
<glyph unicode="&#x41;" glyph-name="uni41" horiz-adv-x="696" d="M694.784 135.68h-81.92q-13.824 0-22.528 6.912t-13.312 18.176l-66.048 172.544h-326.144l-66.048-172.544q-3.072-9.728-12.544-17.408t-22.784-7.68h-81.92l292.864 734.72h107.008zM214.016 409.088h267.776l-111.104 289.28q-5.632 13.824-11.52 32t-11.52 39.68q-5.632-21.504-11.264-39.936t-11.264-32.256z" />
<glyph unicode="&#x42;" glyph-name="uni42" horiz-adv-x="664" d="M91.648 135.68v734.72h237.568q68.608 0 117.76-13.312t80.896-38.144 46.848-60.672 15.104-80.384q0-26.624-8.448-51.456t-25.344-46.080-42.496-38.4-59.904-27.904q79.36-15.872 120.064-58.112t40.704-109.824q0-47.104-17.408-85.76t-50.688-66.304-81.664-43.008-110.336-15.36h-262.656zM197.12 468.48v-248.832h155.648q41.984 0 71.68 9.728t48.64 26.88 27.904 40.704 8.96 51.712q0 55.296-38.912 87.552t-118.272 32.256h-155.648zM197.12 543.232h127.488q40.96 0 71.168 8.704t49.92 24.576 29.44 38.4 9.728 50.176q0 63.488-38.144 92.928t-117.504 29.44h-132.096v-244.224z" />
<glyph unicode="&#x43;" glyph-name="uni43" horiz-adv-x="683" d="M605.696 291.328q8.704 0 15.36-6.656l41.984-46.080q-45.056-52.736-109.824-81.92t-155.392-29.184q-79.872 0-144.64 27.648t-110.592 77.312-70.656 118.784-24.832 152.064 26.112 152.064 73.728 118.528 113.92 77.056 146.176 27.648q78.336 0 139.008-25.6t105.728-68.096l-34.816-49.152q-3.584-5.12-8.448-8.448t-13.568-3.328q-9.728 0-22.784 9.728t-34.304 21.76-52.992 21.76-78.336 9.728q-55.296 0-101.632-19.456t-79.616-55.808-51.712-89.088-18.432-119.296q0-67.584 19.2-120.576t52.736-89.344 79.104-55.552 97.792-19.2q32.256 0 57.856 3.84t47.36 11.52 40.704 19.968 37.888 29.184q4.096 3.584 8.448 5.888t9.472 2.304z" />
<glyph unicode="&#x44;" glyph-name="uni44" horiz-adv-x="779" d="M731.136 503.296q0-82.432-26.368-150.272t-74.24-116.224-114.944-74.752-148.48-26.368h-275.456v734.72h275.456q81.408 0 148.48-26.624t114.944-74.752 74.24-115.968 26.368-149.76zM623.104 503.296q0 66.048-17.92 118.528t-51.456 88.576-80.896 55.296-105.728 19.2h-169.472v-563.712h169.472q58.368 0 105.728 19.2t80.896 55.296 51.456 88.576 17.92 119.040z" />
<glyph unicode="&#x45;" glyph-name="uni45" horiz-adv-x="591" d="M546.304 870.4v-86.016h-348.672v-236.544h281.088v-82.944h-281.088v-243.2h349.184l-0.512-86.016h-454.656v734.72h454.656z" />
<glyph unicode="&#x46;" glyph-name="uni46" horiz-adv-x="579" d="M546.304 870.4v-86.016h-348.672v-249.856h297.472v-86.016h-297.472v-312.832h-105.984v734.72h454.656z" />
<glyph unicode="&#x47;" glyph-name="uni47" horiz-adv-x="747" d="M690.176 206.848q-55.808-39.936-118.528-59.648t-136.96-19.712q-88.576 0-160.256 27.648t-122.368 77.312-78.080 118.784-27.392 152.064q0 83.456 26.368 152.576t75.52 118.784 118.784 76.8 156.16 27.136q44.032 0 81.664-6.656t69.632-18.688 59.392-29.184 50.432-38.656l-29.696-48.128q-7.168-11.264-18.688-14.080t-24.832 5.376q-13.312 7.68-29.44 17.664t-38.4 18.944-52.224 15.36-71.424 6.4q-60.928 0-110.080-19.968t-83.712-56.832-53.248-89.344-18.688-117.504q0-68.608 19.456-122.368t55.552-91.136 87.552-57.088 114.944-19.712q24.576 0 46.336 2.816t41.472 8.192 38.144 13.056 36.864 16.896v157.184h-110.080q-10.24 0-16.64 5.888t-6.4 14.592v59.904h228.864v-284.672z" />
<glyph unicode="&#x48;" glyph-name="uni48" horiz-adv-x="783" d="M691.2 135.68h-105.984v332.288h-387.584v-332.288h-105.984v734.72h105.984v-325.632h387.584v325.632h105.984v-734.72z" />
<glyph unicode="&#x49;" glyph-name="uni49" horiz-adv-x="290" d="M197.632 135.68h-105.984v734.72h105.984v-734.72z" />
<glyph unicode="&#x4a;" glyph-name="uni4A" horiz-adv-x="434" d="M349.696 391.168q0-61.44-15.36-110.336t-44.8-82.944-72.96-52.224-99.84-18.176q-50.688 0-104.96 14.336l6.144 62.464q1.024 8.704 6.656 14.592t16.896 5.888q9.216 0 24.32-4.352t40.192-4.352q32.768 0 58.624 9.984t43.52 30.976 26.88 53.504 9.216 78.080v481.792h105.472v-479.232z" />
<glyph unicode="&#x4b;" glyph-name="uni4B" horiz-adv-x="682" d="M197.12 551.424h36.352q19.456 0 31.488 4.864t21.76 16.64l237.568 273.408q10.752 13.312 22.528 18.688t28.672 5.376h89.6l-274.432-313.856q-19.968-24.576-40.448-34.816 27.648-9.728 48.64-38.912l285.696-347.136h-91.648q-20.48 0-30.208 5.888t-16.896 16.128l-245.76 288.256q-10.24 12.8-22.272 18.432t-36.096 5.632h-44.544v-334.336h-105.472v734.72h105.472v-318.976z" />
<glyph unicode="&#x4c;" glyph-name="uni4C" horiz-adv-x="527" d="M197.12 224.768h313.856v-89.088h-419.328v734.72h105.472v-645.632z" />
<glyph unicode="&#x4d;" glyph-name="uni4D" horiz-adv-x="953" d="M454.656 408.064q12.8-25.6 24.064-55.296 5.632 14.848 11.52 28.928t13.056 27.392l243.712 443.392q6.656 12.8 14.592 15.36t21.76 2.56h78.336v-734.72h-92.672v528.384q0 11.264 0.512 24.064t1.536 26.112l-246.784-451.584q-5.632-11.776-15.616-17.92t-22.272-6.144h-14.848q-26.112 0-38.4 24.064l-251.904 453.632q1.024-13.824 2.048-27.136t1.024-25.088v-528.384h-92.672v734.72h78.336q13.824 0 21.76-2.56t14.592-15.36l248.32-444.416z" />
<glyph unicode="&#x4e;" glyph-name="uni4E" horiz-adv-x="783" d="M146.432 870.4q13.824 0 20.736-3.072t15.616-14.848l418.304-542.208q-1.024 13.824-1.792 27.648t-0.768 25.6v506.88h92.672v-734.72h-53.248q-12.288 0-20.736 4.352t-16.64 14.592l-418.816 542.208q1.024-13.312 1.792-26.368t0.768-24.32v-510.464h-92.672v734.72h54.784z" />
<glyph unicode="&#x4f;" glyph-name="uni4F" horiz-adv-x="821" d="M774.144 503.296q0-82.432-26.368-151.552t-73.984-118.784-114.688-77.312-148.48-27.648-148.224 27.648-114.944 77.312-74.496 118.784-26.368 151.552q0 81.92 26.368 151.040t74.496 118.784 114.944 77.568 148.224 27.904 148.48-27.904 114.688-77.568 73.984-118.784 26.368-151.040zM666.112 503.296q0 66.048-17.92 118.784t-51.456 89.344-80.64 56.064-105.472 19.456-105.728-19.456-80.896-56.064-51.712-89.344-18.176-118.784q0-66.56 18.176-119.296t51.712-89.088 80.896-55.808 105.728-19.456 105.472 19.456 80.64 55.808 51.456 89.088 17.92 119.296z" />
<glyph unicode="&#x50;" glyph-name="uni50" horiz-adv-x="618" d="M197.12 407.552v-271.872h-105.472v734.72h220.672q70.144 0 122.112-16.384t86.016-46.336 50.944-72.192 16.896-93.952-17.92-94.464-52.736-73.984-86.272-48.384-119.040-17.152h-115.2zM197.12 491.52h115.2q41.472 0 73.472 11.008t53.504 30.72 32.512 47.36 11.008 60.928q0 34.304-10.496 61.184t-31.744 45.824-53.248 28.928-75.008 9.984h-115.2v-295.936z" />
<glyph unicode="&#x51;" glyph-name="uni51" horiz-adv-x="821" d="M774.656 503.296q0-51.712-10.496-98.304t-30.208-86.528-48.128-72.704-64.256-56.832l187.904-203.264h-87.040q-19.456 0-34.56 5.376t-27.904 18.688l-125.44 136.704q-28.672-8.704-59.392-13.568t-64-4.864q-81.408 0-148.224 27.648t-114.944 77.312-74.496 118.784-26.368 151.552q0 81.92 26.368 151.040t74.496 118.784 114.944 77.568 148.224 27.904 148.48-27.904 114.688-77.568 73.984-118.784 26.368-151.040zM666.624 503.296q0 66.048-17.92 118.784t-51.456 89.344-80.64 56.064-105.472 19.456-105.728-19.456-80.896-56.064-51.712-89.344-18.176-118.784q0-66.56 18.176-119.296t51.712-89.088 80.896-55.808 105.728-19.456 105.472 19.456 80.64 55.808 51.456 89.088 17.92 119.296z" />
<glyph unicode="&#x52;" glyph-name="uni52" horiz-adv-x="645" d="M197.12 438.784v-303.104h-105.472v734.72h210.432q70.656 0 121.856-14.336t84.736-41.216 49.408-64.768 15.872-84.48q0-38.912-12.032-72.704t-34.816-60.672-55.808-46.336-75.008-29.184q19.968-11.776 34.304-33.28l209.408-287.744h-94.208q-28.672 0-41.984 22.528l-184.32 257.536q-8.704 12.288-18.944 17.664t-30.72 5.376h-72.704zM197.12 516.096h101.376q42.496 0 74.752 10.24t53.76 29.184 32.512 44.8 11.008 57.6q0 64-41.984 96.768t-126.464 32.768h-104.96v-271.36z" />
<glyph unicode="&#x53;" glyph-name="uni53" horiz-adv-x="557" d="M470.016 752.128q-4.608-8.192-9.984-12.032t-14.080-3.84q-9.216 0-20.992 8.448t-29.44 18.944-42.24 18.944-58.88 8.448q-32.768 0-57.6-8.448t-41.472-23.296-25.088-35.072-8.448-43.776q0-30.208 15.104-49.664t39.68-33.536 56.064-24.32 64.256-21.504 64.256-25.344 56.064-35.84 39.68-53.248 15.104-77.056q0-48.64-16.64-90.88t-48.384-73.728-77.824-49.664-104.96-18.176q-35.328 0-68.352 6.912t-62.464 19.456-55.296 30.208-46.336 39.68l30.72 50.176q4.096 6.144 10.496 9.984t14.080 3.84q10.752 0 24.832-11.264t34.816-24.832 49.92-24.832 70.656-11.264q34.304 0 61.44 9.216t45.824 26.112 28.416 40.96 9.728 53.248q0 32.768-15.104 53.504t-39.68 34.56-55.808 23.552-64.256 20.224-64.256 24.32-55.808 36.096-39.68 55.552-15.104 82.432q0 38.912 15.36 75.776t44.544 65.024 71.936 45.312 98.048 17.152q61.952 0 113.408-19.456t89.856-56.32z" />
<glyph unicode="&#x54;" glyph-name="uni54" horiz-adv-x="606" d="M591.36 870.4v-88.576h-235.008v-646.144h-105.472v646.144h-235.52v88.576h576z" />
<glyph unicode="&#x55;" glyph-name="uni55" horiz-adv-x="755" d="M377.344 220.16q44.544 0 79.616 15.104t59.392 42.24 37.12 64.768 12.8 83.2v444.928h105.472v-444.928q0-64-20.48-118.784t-58.368-94.72-92.672-62.464-122.88-22.528q-68.608 0-123.136 22.528t-92.672 62.464-58.624 94.72-20.48 118.784v444.928h105.472v-444.928q0-45.056 12.8-82.688t37.12-65.024 59.648-42.496 79.872-15.104z" />
<glyph unicode="&#x56;" glyph-name="uni56" horiz-adv-x="696" d="M1.536 870.4h84.48q13.824 0 22.784-6.912t13.056-18.176l201.728-505.344q7.168-17.92 13.568-39.68t12.032-45.312q5.12 23.552 11.008 45.312t13.056 39.68l201.216 505.344q3.072 9.728 12.544 17.408t22.784 7.68h84.992l-299.008-734.72h-95.232z" />
<glyph unicode="&#x57;" glyph-name="uni57" horiz-adv-x="1063" d="M14.336 870.4h88.576q13.824 0 23.296-6.656t12.544-18.432l146.944-497.664q3.584-14.336 6.912-31.232t6.912-34.816q3.584 18.432 7.424 35.072t8.96 30.976l167.936 497.664q3.072 9.728 12.8 17.408t23.040 7.68h30.72q13.824 0 22.528-6.912t13.312-18.176l167.424-497.664q9.728-28.672 16.384-63.488 2.56 17.92 5.888 33.792t6.912 29.696l147.456 497.664q2.56 10.24 12.544 17.664t23.296 7.424h82.432l-229.376-734.72h-94.72l-181.76 549.888q-2.56 8.192-5.376 17.92t-5.376 19.968q-4.608-21.504-10.24-37.888l-182.784-549.888h-95.232z" />
<glyph unicode="&#x58;" glyph-name="uni58" horiz-adv-x="668" d="M260.096 513.536l-241.152 356.864h105.472q11.264 0 16.64-3.584t9.472-10.752l187.392-290.304q2.56 6.144 4.864 12.032t6.4 12.544l176.128 264.192q9.728 15.872 24.064 15.872h101.376l-242.688-352.768 250.368-381.952h-104.96q-11.776 0-18.432 6.144t-10.752 13.824l-192.512 303.616q-1.536-5.632-4.096-11.264t-5.12-10.24l-187.392-282.112q-5.12-7.168-11.52-13.568t-16.64-6.4h-98.304z" />
<glyph unicode="&#x59;" glyph-name="uni59" horiz-adv-x="643" d="M374.272 426.496v-290.816h-105.472v290.816l-269.312 443.904h93.184q13.824 0 22.272-6.656t14.080-17.92l162.304-278.016q9.728-18.944 17.408-35.328t13.824-32.768q5.632 16.384 13.056 33.024t16.64 35.072l161.792 278.016q5.12 9.216 13.824 16.896t22.016 7.68h93.696z" />
<glyph unicode="&#x5a;" glyph-name="uni5A" horiz-adv-x="617" d="M584.704 870.4v-38.912q0-18.944-10.752-34.816l-409.6-574.976h413.696v-86.016h-551.936v41.472q0 8.704 2.816 16.128t7.424 14.592l409.6 576.512h-399.872v86.016h538.624z" />
<glyph unicode="&#x5b;" glyph-name="uni5B" horiz-adv-x="315" d="M91.648-13.824v935.936h192v-38.4q0-10.752-7.424-18.432t-19.2-7.68h-83.968v-807.424h83.968q11.776 0 19.2-7.424t7.424-18.176v-38.4h-192z" />
<glyph unicode="&#x5c;" glyph-name="uni5C" horiz-adv-x="465" d="M33.28 890.88h41.472q17.92 0 30.976-9.216t19.712-26.112l306.176-766.464h-40.96q-15.36 0-30.464 9.216t-22.272 28.16z" />
<glyph unicode="&#x5d;" glyph-name="uni5D" horiz-adv-x="315" d="M30.72-13.824v38.4q0 10.752 7.424 18.176t19.2 7.424h83.968v807.424h-83.968q-11.776 0-19.2 7.68t-7.424 18.432v38.4h192v-935.936h-192z" />
<glyph unicode="&#x5e;" glyph-name="uni5E" horiz-adv-x="594" d="M528.896 490.496h-70.656q-9.216 0-15.616 5.12t-10.496 12.8l-114.688 221.696q-13.312 27.136-20.992 51.712-7.68-25.088-19.456-51.712l-110.080-221.696q-3.584-7.168-10.496-12.544t-17.152-5.376h-74.24l199.168 379.904h62.464z" />
<glyph unicode="&#x5f;" glyph-name="uni5F" horiz-adv-x="472" d="M437.248 54.272v-65.536h-403.456v65.536h403.456z" />
<glyph unicode="&#x60;" glyph-name="uni60" d="M154.624 878.592q17.408 0 25.856-5.632t15.616-17.408l75.776-123.904h-55.296q-11.264 0-18.688 3.328t-14.592 11.52l-120.32 132.096h91.648z" />
<glyph unicode="&#x61;" glyph-name="uni61" horiz-adv-x="511" d="M402.944 135.68q-14.336 0-22.016 4.608t-12.288 17.92l-10.752 46.592q-19.968-18.432-39.424-33.024t-40.704-24.32-45.312-14.848-53.76-5.12q-30.72 0-57.344 8.448t-46.336 25.856-31.232 43.264-11.52 61.184q0 30.72 16.64 58.88t54.272 50.432 98.304 36.608 149.248 16.384v38.912q0 58.88-25.344 88.832t-74.496 29.952q-33.28 0-55.552-8.448t-38.4-18.432-28.416-18.176-24.576-8.192q-10.24 0-17.152 5.376t-12.032 12.544l-17.408 31.744q43.52 40.96 93.952 61.44t111.36 20.48q44.032 0 78.336-14.336t57.6-40.192 35.328-62.208 12.032-80.384v-331.776h-43.008zM207.872 195.584q23.040 0 42.752 4.608t36.864 13.312 32.512 21.248 30.72 28.416v104.448q-61.44-2.048-104.448-9.728t-69.888-19.968-39.168-29.44-12.288-37.632q0-19.968 6.4-34.304t17.664-23.296 26.368-13.312 32.512-4.352z" />
<glyph unicode="&#x62;" glyph-name="uni62" horiz-adv-x="575" d="M70.656 135.68v755.2h97.28v-308.736q32.256 37.376 73.472 59.392t93.952 22.016q45.568 0 82.176-17.664t62.208-50.432 39.168-80.128 13.568-106.24q0-62.976-15.616-114.688t-44.544-88.576-70.144-57.088-92.928-20.224q-51.2 0-85.76 19.2t-60.672 52.992l-4.608-44.544q-4.608-20.48-24.576-20.48h-62.976zM303.104 586.24q-43.52 0-75.52-19.712t-59.648-56.064v-248.32q24.576-32.256 53.76-45.312t63.488-13.056q71.168 0 109.056 50.176t37.888 151.552q0 93.184-33.536 136.96t-95.488 43.776z" />
<glyph unicode="&#x63;" glyph-name="uni63" horiz-adv-x="489" d="M434.176 559.616q-4.096-5.632-8.448-8.704t-12.032-3.072q-8.192 0-17.408 6.4t-22.528 13.824-32.768 13.824-47.616 6.4q-37.376 0-66.048-13.312t-47.872-38.4-28.928-60.416-9.728-79.872q0-46.080 10.496-81.92t29.696-60.416 46.592-37.376 61.184-12.8q32.768 0 53.76 7.936t34.816 17.152 23.296 17.152 19.2 7.936q12.288 0 18.432-9.216l27.648-35.328q-17.92-21.504-39.936-36.864t-47.104-25.088-52.224-14.336-55.296-4.608q-48.64 0-90.624 17.92t-72.96 52.224-48.64 84.224-17.664 113.408q0 57.856 16.128 106.752t47.36 84.736 77.056 55.808 105.216 19.968q55.808 0 98.048-17.92t74.496-50.176z" />
<glyph unicode="&#x64;" glyph-name="uni64" horiz-adv-x="575" d="M445.952 135.68q-20.48 0-25.6 19.456l-8.704 60.928q-16.384-19.968-35.328-36.096t-40.448-27.648-45.568-17.664-51.712-6.144q-44.544 0-80.64 17.152t-61.952 50.944-39.68 83.2-13.824 113.92q0 57.856 15.36 107.264t44.544 85.76 70.656 57.088 93.696 20.736q47.104 0 80.64-15.616t59.648-43.776v285.696h97.28v-755.2h-58.368zM270.336 206.848q43.52 0 76.288 19.712t60.416 56.064v247.808q-24.576 32.768-53.76 45.824t-64.512 13.056q-70.144 0-108.032-50.176t-37.888-145.408q0-49.664 8.704-84.992t25.088-58.112 39.936-33.28 53.76-10.496z" />
<glyph unicode="&#x65;" glyph-name="uni65" horiz-adv-x="542" d="M285.184 663.552q47.104 0 87.040-15.616t69.12-45.312 45.568-72.96 16.384-99.072q0-22.528-4.864-30.208t-18.176-7.68h-343.040q1.536-47.616 13.568-82.944t32.768-58.624 49.92-34.816 65.024-11.52q33.792 0 58.112 7.68t41.984 16.896 29.952 16.896 21.504 7.68q12.288 0 17.92-9.216l27.648-35.328q-17.92-21.504-41.472-36.608t-50.688-25.088-56.064-14.592-57.088-4.608q-53.76 0-99.584 18.176t-79.104 53.248-51.968 87.040-18.688 119.552q0 54.272 16.896 101.12t48.384 81.408 76.8 54.528 102.144 19.968zM286.72 592.384q-64 0-100.608-37.12t-45.824-102.656h275.968q0 30.72-8.704 56.32t-25.344 44.032-40.704 28.928-54.784 10.496z" />
<glyph unicode="&#x66;" glyph-name="uni66" horiz-adv-x="360" d="M104.96 135.68v439.296l-55.296 6.656q-11.776 2.048-18.944 7.936t-7.168 16.64v40.448h81.408v48.128q0 44.544 12.8 79.36t36.352 58.624 57.088 36.352 75.008 12.544q16.896 0 33.28-2.56t31.232-7.168l-2.048-49.152q-0.512-6.144-4.096-9.472t-9.728-4.864-14.336-1.536h-18.432q-23.552 0-42.496-5.888t-32.512-19.2-20.736-35.584-7.168-54.528v-45.056h147.456v-70.656h-144.384v-440.32h-97.28z" />
<glyph unicode="&#x67;" glyph-name="uni67" horiz-adv-x="534" d="M252.928 664.064q33.792 0 62.72-7.424t53.504-21.248h143.36v-35.84q0-18.432-22.528-23.040l-56.832-8.192q15.872-32.768 15.872-71.68 0-38.4-14.592-69.12t-40.704-52.736-62.208-33.792-78.592-11.776q-35.84 0-66.56 7.68-32.256-19.456-32.256-43.008 0-17.92 15.104-26.88t39.68-13.056 55.808-5.12 64-3.328 64-7.936 55.808-18.688 39.68-35.584 15.104-58.88q0-33.792-16.64-65.28t-48.128-55.808-77.056-39.168-102.912-14.848-100.096 11.264-71.168 30.208-42.496 43.776-14.080 51.968q0 38.4 23.808 64.768t65.28 41.216q-23.040 10.24-36.352 27.904t-13.312 46.848q0 11.264 4.096 23.296t12.544 24.064 20.992 22.784 28.928 18.944q-38.4 21.504-60.416 57.088t-22.016 83.2q0 38.4 14.848 69.12t41.216 52.736 62.72 33.792 79.872 11.776zM413.696 108.544q0 18.432-10.496 29.696t-28.416 17.92-41.472 9.216-49.664 4.096-53.504 3.072-52.48 5.12q-27.648-13.312-45.056-32.768t-17.408-45.568q0-16.896 8.704-31.488t26.368-25.088 45.056-16.64 64.768-6.144q36.864 0 65.536 6.656t48.128 18.432 29.696 27.904 10.24 35.584zM252.928 393.216q27.136 0 47.616 7.424t34.304 20.736 20.736 31.744 6.912 40.96q0 46.080-27.904 73.472t-81.664 27.392-81.664-27.392-27.904-73.472q0-22.016 7.168-40.448t20.992-32 34.304-20.992 47.104-7.424z" />
<glyph unicode="&#x68;" glyph-name="uni68" horiz-adv-x="572" d="M70.656 135.68v755.2h97.28v-302.080q32.768 33.792 72.704 54.272t92.16 20.48q42.496 0 75.008-14.336t54.528-40.192 33.28-61.952 11.264-80.128v-331.264h-97.28v331.264q0 56.32-26.112 87.808t-79.36 31.488q-39.424 0-73.216-18.432t-62.976-50.688v-381.44h-97.28z" />
<glyph unicode="&#x69;" glyph-name="uni69" horiz-adv-x="248" d="M172.544 655.36v-519.68h-97.28v519.68h97.28zM191.488 816.64q0-13.824-5.376-25.856t-14.848-21.248-22.016-14.592-26.368-5.376q-13.312 0-25.344 5.376t-21.248 14.592-14.592 21.248-5.376 25.856 5.376 26.368 14.592 21.76 21.248 14.592 25.344 5.376q13.824 0 26.368-5.376t22.016-14.592 14.848-21.76 5.376-26.368z" />
<glyph unicode="&#x6a;" glyph-name="uni6A" horiz-adv-x="248" d="M172.544 655.36v-554.496q0-31.744-8.448-59.392t-26.368-47.872-46.592-32-68.608-11.776q-16.896 0-30.976 2.304t-28.416 7.424l4.096 52.736q1.024 4.608 3.072 6.912t5.888 3.072 10.24 0.768h16.128q39.936 0 56.32 18.176t16.384 59.648v554.496h97.28zM191.488 816.64q0-13.824-5.632-25.856t-14.848-21.248-21.76-14.592-26.368-5.376-25.856 5.376-20.992 14.592-14.336 21.248-5.376 25.856 5.376 26.368 14.336 21.76 20.992 14.592 25.856 5.376 26.368-5.376 21.76-14.592 14.848-21.76 5.632-26.368z" />
<glyph unicode="&#x6b;" glyph-name="uni6B" horiz-adv-x="525" d="M167.936 890.88v-442.368h23.552q10.24 0 17.408 3.072t14.848 11.776l158.72 173.056q7.168 9.216 15.616 14.080t21.76 4.864h88.064l-186.368-201.728q-14.336-18.432-31.232-28.672 9.728-6.144 17.152-14.848t14.592-18.944l198.144-255.488h-87.040q-11.776 0-20.736 4.096t-15.616 14.848l-164.352 209.92q-7.68 11.264-15.104 14.592t-22.784 3.328h-26.624v-246.784h-97.28v755.2h97.28z" />
<glyph unicode="&#x6c;" glyph-name="uni6C" horiz-adv-x="244" d="M170.496 890.88v-755.2h-97.28v755.2h97.28z" />
<glyph unicode="&#x6d;" glyph-name="uni6D" horiz-adv-x="845" d="M70.656 135.68v519.68h58.368q20.48 0 25.6-19.456l6.656-50.688q28.672 34.304 64 56.32t82.432 22.016q52.224 0 84.48-28.416t46.592-77.056q11.264 27.648 29.184 47.616t39.936 32.768 46.848 18.944 50.432 6.144q83.456 0 129.024-50.944t45.568-145.664v-331.264h-97.28v331.264q0 58.88-25.856 89.088t-75.008 30.208q-22.016 0-41.728-7.68t-34.56-22.528-23.552-37.376-8.704-51.712v-331.264h-97.28v331.264q0 60.416-24.32 89.856t-71.424 29.44q-32.256 0-60.672-17.152t-51.456-47.36v-386.048h-97.28z" />
<glyph unicode="&#x6e;" glyph-name="uni6E" horiz-adv-x="572" d="M70.656 135.68v519.68h58.368q20.48 0 25.6-19.456l7.168-53.76q33.792 36.352 75.264 58.88t95.744 22.528q42.496 0 75.008-14.336t54.528-40.192 33.28-61.952 11.264-80.128v-331.264h-97.28v331.264q0 56.32-26.112 87.808t-79.36 31.488q-39.424 0-73.216-18.432t-62.976-50.688v-381.44h-97.28z" />
<glyph unicode="&#x6f;" glyph-name="uni6F" horiz-adv-x="582" d="M291.328 663.552q57.344 0 103.424-18.688t78.336-53.504 49.664-84.224 17.408-110.848-17.408-111.104-49.664-84.48-78.336-53.504-103.424-18.688-103.68 18.688-78.848 53.504-49.92 84.48-17.408 111.104 17.408 110.848 49.92 84.224 78.848 53.504 103.68 18.688zM291.328 204.288q74.752 0 111.616 50.176t36.864 141.312q0 90.624-36.864 141.312t-111.616 50.688q-75.776 0-112.896-50.688t-37.12-141.312q0-91.136 37.12-141.312t112.896-50.176z" />
<glyph unicode="&#x70;" glyph-name="uni70" horiz-adv-x="575" d="M70.656-38.912v694.272h58.368q20.48 0 25.6-19.456l8.192-59.392q32.768 39.424 75.52 63.744t98.048 24.32q44.544 0 80.64-17.152t61.952-50.944 39.68-83.2 13.824-113.92q0-57.856-15.36-107.264t-44.544-85.76-70.656-57.088-93.696-20.736q-47.616 0-80.896 15.36t-59.392 44.032v-226.816h-97.28zM304.64 586.24q-44.032 0-76.544-19.712t-60.16-56.064v-248.32q24.576-32.256 53.504-45.312t64.768-13.056q70.144 0 108.032 50.176t37.888 145.408q0 49.664-8.704 84.992t-25.088 58.112-39.936 33.28-53.76 10.496z" />
<glyph unicode="&#x71;" glyph-name="uni71" horiz-adv-x="574" d="M504.32 655.36v-694.272h-97.28v249.344q-32.768-37.376-73.984-59.648t-94.464-22.272q-44.544 0-80.64 17.152t-61.952 50.944-39.68 83.2-13.824 113.92q0 57.856 15.36 107.264t44.544 85.76 70.656 57.088 93.696 20.736q25.088 0 46.080-4.608t38.912-13.312 33.28-21.248 28.672-28.416l6.656 38.912q5.12 19.456 25.6 19.456h58.368zM270.336 206.848q43.52 0 76.288 19.712t60.416 56.064v247.808q-24.064 31.744-53.504 45.312t-64.768 13.568q-70.144 0-108.032-50.176t-37.888-145.408q0-49.664 8.704-84.992t25.088-58.112 39.936-33.28 53.76-10.496z" />
<glyph unicode="&#x72;" glyph-name="uni72" horiz-adv-x="374" d="M70.656 135.68v519.68h55.808q15.872 0 21.76-5.632t7.936-20.48l6.144-75.776q24.576 51.712 60.416 81.408t86.016 29.696q16.896 0 32-3.584t26.368-11.264l-6.656-72.704q-3.072-13.824-16.384-13.824-7.168 0-21.248 3.072t-30.976 3.072q-24.064 0-42.752-7.168t-33.536-20.992-26.368-33.792-21.248-45.568v-326.144h-97.28z" />
<glyph unicode="&#x73;" glyph-name="uni73" horiz-adv-x="444" d="M375.808 567.296q-7.168-12.288-19.968-12.288-8.192 0-18.176 5.632t-23.808 12.544-33.024 12.544-45.312 5.632q-22.016 0-39.936-5.632t-30.464-15.36-19.456-22.784-6.912-28.416q0-19.456 11.52-32.512t30.208-22.528 42.752-16.896 49.152-15.616 49.152-18.688 42.752-25.856 30.208-37.632 11.52-53.504q0-36.352-13.056-67.072t-38.4-53.248-62.208-35.328-84.992-12.8q-54.272 0-99.072 17.92t-75.52 45.568l22.528 36.864q4.096 7.168 10.24 11.008t15.36 3.84q9.728 0 19.968-7.168t24.832-15.616 35.328-15.616 51.456-7.168q26.112 0 45.312 6.656t32 17.664 18.944 25.856 6.144 31.232q0 20.992-11.52 34.816t-30.208 23.552-42.752 16.896-49.408 15.36-49.408 18.688-42.752 26.88-30.208 39.68-11.52 57.088q0 30.208 12.288 57.856t36.096 48.64 58.624 33.28 79.36 12.288q51.2 0 92.928-16.128t70.912-44.8z" />
<glyph unicode="&#x74;" glyph-name="uni74" horiz-adv-x="369" d="M232.448 127.488q-62.464 0-96.256 34.816t-33.792 100.352v313.344h-60.928q-8.704 0-14.336 5.376t-5.632 15.616v38.912l84.48 11.264 22.016 157.184q2.048 8.192 7.68 13.056t14.848 4.864h49.152v-175.616h147.968v-70.656h-147.968v-306.688q0-31.232 15.104-46.848t39.68-15.616q13.824 0 24.064 3.584t17.408 8.192 12.544 8.192 9.472 3.584q4.608 0 7.424-2.048t5.888-7.168l28.672-46.592q-24.576-22.528-58.112-34.816t-69.376-12.288z" />
<glyph unicode="&#x75;" glyph-name="uni75" horiz-adv-x="572" d="M162.816 655.36v-331.264q0-56.32 26.112-87.808t79.36-31.488q38.912 0 72.96 18.176t63.232 50.432v381.952h97.28v-519.68h-58.368q-20.48 0-25.6 19.456l-7.68 53.76q-33.792-36.352-75.008-58.88t-95.488-22.528q-43.008 0-75.52 14.336t-54.272 40.192-33.024 61.952-11.264 80.128v331.264h97.28z" />
<glyph unicode="&#x76;" glyph-name="uni76" horiz-adv-x="530" d="M309.248 135.68h-88.064l-210.944 519.68h79.872q11.776 0 19.2-5.632t9.984-13.824l126.976-324.096q6.656-19.456 11.264-38.656t8.704-38.144q4.096 18.944 8.96 37.888t12.032 38.912l128.512 324.096q2.56 8.704 10.24 14.080t17.92 5.376h76.288z" />
<glyph unicode="&#x77;" glyph-name="uni77" horiz-adv-x="807" d="M15.36 655.36h76.8q11.776 0 19.2-5.632t9.984-13.824l95.744-324.096q4.608-19.456 8.192-37.376t6.656-35.84q4.608 17.92 9.728 35.84t10.752 37.376l105.472 326.144q2.56 8.192 9.472 13.568t17.152 5.376h41.984q10.752 0 17.92-5.376t9.728-13.568l103.936-326.144q5.632-19.456 10.24-37.376t8.704-35.84q3.072 17.92 6.912 35.84t8.96 37.376l97.28 324.096q3.072 8.704 10.496 14.080t17.664 5.376h73.216l-167.936-519.68h-76.8q-14.336 0-19.456 18.432l-111.104 343.040q-4.096 12.288-7.168 24.576t-5.632 24.576q-2.56-12.288-5.12-24.832t-6.656-24.832l-113.152-342.528q-5.632-18.432-22.016-18.432h-73.216z" />
<glyph unicode="&#x78;" glyph-name="uni78" horiz-adv-x="514" d="M192 402.944l-174.592 252.416h93.184q11.776 0 17.152-3.584t9.472-10.752l124.416-190.976q2.56 7.168 5.632 14.592t8.192 15.104l108.032 159.744q4.608 7.68 10.24 11.776t13.824 4.096h89.088l-174.592-248.32 181.76-271.36h-93.184q-11.776 0-18.688 6.144t-11.008 13.824l-126.976 199.68q-2.56-8.192-5.12-15.104t-6.656-12.544l-116.736-172.032q-5.12-7.168-11.52-13.568t-16.64-6.4h-87.040z" />
<glyph unicode="&#x79;" glyph-name="uni79" horiz-adv-x="530" d="M233.984-15.872q-4.608-11.264-11.776-17.152t-22.016-5.888h-72.192l95.232 206.336-214.016 487.936h84.48q12.288 0 19.456-5.888t9.728-13.568l134.656-317.44q8.704-23.552 13.824-46.592 3.584 11.776 7.68 23.808t8.704 23.808l130.048 316.416q3.072 8.704 10.752 14.080t17.408 5.376h77.312z" />
<glyph unicode="&#x7a;" glyph-name="uni7A" horiz-adv-x="464" d="M431.616 614.4q0-10.24-3.584-20.224t-9.216-17.152l-276.48-365.568h280.064v-75.776h-393.216v40.96q0 6.656 3.328 16.128t9.984 18.176l277.504 368.64h-275.456v75.776h387.072v-40.96z" />
<glyph unicode="&#x7b;" glyph-name="uni7B" horiz-adv-x="309" d="M102.4 351.744q0 32.256-17.408 52.736t-51.2 20.48v58.368q33.792 0 51.2 20.224t17.408 52.48q0 25.6-4.096 50.432t-8.704 49.92-8.704 50.432-4.096 51.456q0 35.84 10.752 66.048t32.256 51.968 53.76 33.792 75.264 12.032h27.136v-43.52q0-10.752-7.68-15.872t-13.824-5.12h-9.216q-38.912 0-61.184-24.832t-22.272-68.352q0-28.672 3.584-55.040t7.936-51.712 7.936-50.176 3.584-49.92q0-18.944-5.632-35.84t-15.872-30.208-24.576-23.040-31.744-14.336q34.816-9.728 56.32-37.376t21.504-66.048q0-25.088-3.584-49.92t-7.936-50.176-7.936-51.968-3.584-54.784q0-43.52 22.272-68.608t61.184-25.088h9.216q6.144 0 13.824-4.864t7.68-15.616v-43.52h-27.136q-43.008 0-75.264 12.032t-53.76 33.536-32.256 51.712-10.752 66.56q0 26.112 4.096 51.456t8.704 50.432 8.704 49.664 4.096 50.176z" />
<glyph unicode="&#x7c;" glyph-name="uni7C" horiz-adv-x="259" d="M91.648 922.112h75.264v-964.608h-75.264v964.608z" />
<glyph unicode="&#x7d;" glyph-name="uni7D" horiz-adv-x="309" d="M206.848 351.744q0-25.6 3.84-50.176t8.704-49.664 8.704-50.432 3.84-51.456q0-36.352-10.752-66.56t-32.256-51.712-53.504-33.536-75.008-12.032h-27.136v43.52q0 10.752 7.68 15.616t13.824 4.864h9.216q38.912 0 60.928 25.088t22.016 68.608q0 28.16-3.584 54.784t-7.68 51.968-7.68 50.176-3.584 49.92q0 38.4 21.504 66.048t55.808 37.376q-16.896 4.608-31.232 14.336t-24.576 23.040-15.872 30.208-5.632 35.84q0 25.088 3.584 49.92t7.68 50.176 7.68 51.712 3.584 55.040q0 43.52-22.016 68.352t-60.928 24.832h-9.216q-6.144 0-13.824 5.12t-7.68 15.872v43.52h27.136q43.008 0 75.008-12.032t53.504-33.792 32.256-51.968 10.752-66.048q0-26.112-3.84-51.456t-8.704-50.432-8.704-49.92-3.84-50.432q0-32.256 17.408-52.48t51.2-20.224v-58.368q-33.792 0-51.2-20.48t-17.408-52.736z" />
<glyph unicode="&#x7e;" glyph-name="uni7E" horiz-adv-x="594" d="M389.632 452.608q32.256 0 50.432 21.248t18.688 56.576h78.336q0-35.328-9.472-64.512t-27.648-50.176-44.544-32.512-60.16-11.52q-26.624 0-52.48 8.192t-49.664 17.92-45.568 17.92-40.192 8.192q-32.256 0-50.432-21.248t-18.688-56.576h-78.336q0 35.328 9.472 64.512t27.648 50.176 44.544 32.512 60.16 11.52q26.624 0 52.48-8.192t49.664-17.92 45.568-17.92 40.192-8.192z" />
<glyph unicode="&#xa1;" glyph-name="uniA1" horiz-adv-x="261" d="M84.992-38.912v275.968q0 23.040 1.024 45.056t2.56 44.288 4.096 45.824 5.632 49.664h65.536q3.072-26.112 5.632-49.664t4.096-45.824 2.56-44.288 1.024-45.056v-275.968h-92.16zM63.488 597.504q0 13.824 5.12 26.112t13.824 20.992 20.992 13.824 26.112 5.12 25.856-5.12 20.992-13.824 14.080-20.992 5.12-26.112-5.12-26.112-14.080-21.504-20.992-14.336-25.856-5.12-26.112 5.12-20.992 14.336-13.824 21.504-5.12 26.112z" />
<glyph unicode="&#xa2;" glyph-name="uniA2" horiz-adv-x="594" d="M285.696 130.56q-47.104 5.12-86.528 25.6t-68.352 54.272-45.056 80.384-16.128 104.96q0 56.32 16.896 104.448t49.152 83.456 79.616 56.064 108.288 22.784l6.656 89.6q1.024 10.24 8.192 18.176t18.944 7.936h35.84l-8.704-118.784q41.984-6.144 75.52-22.528t61.184-41.472l-25.088-34.304q-4.096-5.632-8.192-8.704t-11.776-3.072q-6.656 0-14.848 4.352t-19.456 10.24-26.624 12.032-35.84 9.728l-27.648-382.464q31.232 2.048 52.48 9.984t35.84 16.384 24.576 15.36 18.688 6.912q5.632 0 10.496-2.304t7.936-6.4l26.112-34.304q-31.744-37.888-79.104-56.832t-102.144-22.528l-6.144-87.040q-1.024-10.24-8.192-18.176t-18.944-7.936h-35.84zM165.888 395.776q0-80.384 33.024-128.512t91.904-60.416l27.648 380.928q-37.888-3.072-66.56-17.664t-47.872-39.424-28.672-58.88-9.472-76.032z" />
<glyph unicode="&#xa3;" glyph-name="uniA3" horiz-adv-x="594" d="M23.552 480.768q0 13.824 8.448 23.552t24.832 9.728h66.048v131.584q0 48.128 14.080 90.624t42.24 73.984 70.4 49.664 99.072 18.176q39.936 0 71.424-9.984t55.808-27.392 41.984-40.96 30.464-50.176l-39.424-25.088q-13.312-7.168-25.856-5.888t-23.296 13.568q-9.728 13.312-19.968 24.832t-23.296 19.968-29.44 13.312-38.4 4.864q-31.232 0-54.784-10.496t-39.424-29.952-23.808-46.848-7.936-61.696v-132.096h222.72v-38.912q0-10.24-7.936-18.176t-20.224-7.936h-194.56v-119.808q0-37.376-14.336-65.536t-38.912-50.688q14.848 3.072 30.208 4.864t31.232 1.792h338.944v-41.472q0-7.168-3.072-14.848t-8.704-13.824-13.312-9.984-17.408-3.84h-493.056v62.464q17.408 5.12 33.536 13.568t28.416 20.992 19.456 29.952 7.168 40.448v145.92h-99.328v31.744z" />
<glyph unicode="&#xa4;" glyph-name="uniA4" horiz-adv-x="594" d="M113.152 479.744q0 29.184 7.936 55.040t22.784 47.872l-77.824 77.824 49.152 49.152 77.312-77.824q22.528 15.36 48.896 23.808t55.552 8.448q28.672 0 54.528-8.192t47.872-23.040l78.336 78.336 48.64-49.664-77.312-77.312q14.848-22.528 23.552-48.896t8.704-55.552q0-28.672-8.192-54.528t-23.040-47.872l77.824-77.312-49.152-49.664-77.824 77.312q-22.528-14.848-48.64-23.296t-55.296-8.448q-28.672 0-54.528 7.936t-47.872 22.784l-78.336-77.824-48.64 49.664 77.312 77.312q-15.36 22.016-23.552 48.384t-8.192 55.552zM185.344 479.744q0-22.528 8.704-42.752t24.064-35.328 35.584-24.064 43.264-8.96q23.552 0 44.032 8.96t35.84 24.064 24.064 35.328 8.704 42.752q0 23.552-8.704 44.032t-24.064 35.84-35.84 24.064-44.032 8.704q-23.040 0-43.264-8.704t-35.584-24.064-24.064-35.84-8.704-44.032z" />
<glyph unicode="&#xa5;" glyph-name="uniA5" horiz-adv-x="594" d="M75.776 456.704h154.112l-207.872 413.696h80.896q13.824 0 22.784-6.4t13.568-18.176l136.704-282.112q7.168-18.432 12.544-34.304t8.96-30.72q3.584 15.36 8.704 30.976t12.288 34.048l136.192 282.112q4.096 9.728 13.312 17.152t22.528 7.424h81.408l-208.384-413.696h154.624v-55.808h-172.544v-53.248h172.544v-55.296h-172.544v-156.672h-97.28v156.672h-172.544v55.296h172.544v53.248h-172.544v55.808z" />
<glyph unicode="&#xa6;" glyph-name="uniA6" horiz-adv-x="262" d="M93.184 922.112h75.264v-408.064h-75.264v408.064zM93.184 369.152h75.264v-408.064h-75.264v408.064z" />
<glyph unicode="&#xa7;" glyph-name="uniA7" horiz-adv-x="508" d="M413.184 781.312q-7.168-11.776-19.968-11.776-8.192 0-17.92 5.632t-23.808 12.288-33.024 12.288-45.568 5.632q-24.064 0-43.264-5.888t-32.256-16.384-19.968-24.064-6.912-28.928q0-18.944 12.288-33.28t32.768-26.112 46.336-22.784 52.736-22.528 52.736-25.6 46.336-32 32.768-41.472 12.288-54.784q0-41.472-19.968-74.24t-62.976-52.224q25.088-19.456 40.704-44.544t15.616-60.416q0-36.352-13.056-67.072t-38.144-52.992-62.208-35.072-84.736-12.8q-54.272 0-99.072 17.92t-75.52 45.568l22.528 36.864q4.096 7.168 10.24 10.752t15.36 3.584q9.728 0 19.968-7.168t25.088-15.616 36.096-15.616 53.504-7.168q25.088 0 44.544 6.144t32.768 17.152 20.48 26.112 7.168 33.536q0 22.528-12.8 39.168t-33.536 29.44-47.36 23.296-54.528 21.76-54.528 24.32-47.36 30.976-33.536 41.728-12.8 56.576q0 40.448 22.016 72.448t69.12 49.92q-25.6 19.456-41.472 46.336t-15.872 65.792q0 30.208 12.288 57.856t36.096 48.64 58.624 33.28 79.36 12.288q51.712 0 93.184-16.384t71.168-44.544zM136.704 507.392q0-25.088 17.408-43.008t44.544-32.256 60.16-27.392 64.768-28.416q26.624 12.8 38.4 31.232t11.776 41.984q0 26.624-16.384 45.056t-42.24 32.768-57.344 26.88-62.208 27.392q-32.256-14.848-45.568-32.768t-13.312-41.472z" />
<glyph unicode="&#xa8;" glyph-name="uniA8" d="M165.888 795.648q0-12.288-4.864-22.784t-13.056-18.432-19.2-12.544-23.296-4.608q-11.776 0-22.528 4.608t-18.688 12.544-12.8 18.432-4.864 22.784 4.864 23.552 12.8 19.456 18.688 13.056 22.528 4.864q12.288 0 23.296-4.864t19.2-13.056 13.056-19.456 4.864-23.552zM363.008 795.648q0-12.288-4.864-22.784t-12.8-18.432-18.944-12.544-23.296-4.608-23.040 4.608-18.944 12.544-12.8 18.432-4.608 22.784 4.608 23.552 12.8 19.456 18.944 13.056 23.040 4.864 23.296-4.864 18.944-13.056 12.8-19.456 4.864-23.552z" />
<glyph unicode="&#xa9;" glyph-name="uniA9" horiz-adv-x="850" d="M553.472 381.952q4.096 0.512 7.936-1.536t6.4-4.608l32.768-34.816q-29.184-34.304-71.68-52.992t-101.888-18.688q-50.176 0-91.392 17.664t-70.656 48.896-45.568 74.24-16.128 94.208q0 51.712 17.664 94.976t48.896 74.24 73.984 48.384 92.928 17.408q55.808 0 94.72-17.664t68.096-46.848l-25.088-35.328q-2.56-3.072-6.912-6.4t-10.496-3.328q-7.168 0-15.104 5.632t-20.48 12.544-31.744 12.544-48.384 5.632q-35.328 0-63.232-11.264t-47.616-32.256-30.208-50.944-10.496-67.328q0-38.912 10.752-68.864t29.44-50.688 44.8-31.488 56.832-10.752q26.112 0 43.776 4.096t30.976 9.984 24.064 12.8 23.040 12.544zM50.176 503.296q0 51.712 13.312 99.584t37.888 89.6 58.88 75.776 75.776 58.624 89.344 37.888 99.584 13.312 99.584-13.312 89.6-37.888 75.776-58.624 58.624-75.776 37.888-89.6 13.312-99.584-13.312-99.584-37.888-89.6-58.624-75.776-75.776-58.624-89.6-37.888-99.584-13.312-99.584 13.312-89.344 37.888-75.776 58.624-58.88 75.776-37.888 89.6-13.312 99.584zM104.96 503.296q0-68.608 24.832-128t68.096-103.424 101.632-69.376 125.44-25.344q67.584 0 126.208 25.344t102.144 69.376 68.608 103.424 25.088 128q0 68.096-25.088 128t-68.608 104.192-102.144 69.888-126.208 25.6q-67.072 0-125.44-25.6t-101.632-69.888-68.096-104.192-24.832-128z" />
<glyph unicode="&#xaa;" glyph-name="uniAA" horiz-adv-x="376" d="M278.016 565.76q-9.728 0-14.592 3.072t-9.472 12.288l-6.144 24.064q-12.288-10.752-24.064-18.944t-24.32-13.568-26.88-8.192-31.744-2.816q-19.456 0-36.096 5.376t-28.928 15.616-19.2 25.856-6.912 36.608q0 17.408 9.472 34.56t31.744 30.976 59.392 22.784 91.904 9.984v17.92q0 31.744-14.336 46.336t-42.496 14.592q-18.944 0-31.744-4.352t-22.272-9.728-16.896-9.728-16.128-4.352q-7.168 0-12.032 4.352t-8.448 8.96l-12.288 23.040q27.136 25.6 58.624 37.376t69.376 11.776q27.648 0 49.664-8.704t36.864-24.576 22.784-37.376 7.936-47.616v-195.584h-32.768zM162.816 611.328q25.088 0 43.264 8.96t36.096 26.368v51.712q-34.816-1.024-58.88-5.12t-38.656-10.496-20.992-15.36-6.4-19.2q0-20.48 12.8-28.672t32.768-8.192z" />
<glyph unicode="&#xab;" glyph-name="uniAB" horiz-adv-x="444" d="M50.688 401.408v12.8l128 199.168 31.744-14.848q12.288-6.144 14.592-16.896t-4.864-23.552l-79.36-131.584q-7.168-12.8-15.36-18.944 8.192-7.168 15.36-18.944l79.36-131.584q7.168-12.8 4.864-23.552t-14.592-16.896l-31.744-14.848zM204.8 401.408v12.8l128 199.168 31.744-14.848q12.288-6.144 14.592-16.896t-4.864-23.552l-79.36-131.584q-7.168-12.8-15.36-18.944 8.192-7.168 15.36-18.944l79.36-131.584q7.168-12.8 4.864-23.552t-14.592-16.896l-31.744-14.848z" />
<glyph unicode="&#xac;" glyph-name="uniAC" horiz-adv-x="594" d="M74.24 516.096h442.88v-220.672h-82.432v146.944h-360.448v73.728z" />
<glyph unicode="&#xad;" glyph-name="uniAD" horiz-adv-x="381" d="M62.976 484.352h254.976v-82.432h-254.976v82.432z" />
<glyph unicode="&#xae;" glyph-name="uniAE" horiz-adv-x="850" d="M50.176 503.296q0 51.712 13.312 99.584t37.888 89.6 58.88 75.776 75.776 58.624 89.344 37.888 99.584 13.312 99.584-13.312 89.6-37.888 75.776-58.624 58.624-75.776 37.888-89.6 13.312-99.584-13.312-99.584-37.888-89.6-58.624-75.776-75.776-58.624-89.6-37.888-99.584-13.312-99.584 13.312-89.344 37.888-75.776 58.624-58.88 75.776-37.888 89.6-13.312 99.584zM104.96 503.296q0-68.608 24.832-128t68.096-103.424 101.632-69.376 125.44-25.344q67.584 0 126.208 25.344t102.144 69.376 68.608 103.424 25.088 128q0 68.096-25.088 128t-68.608 104.192-102.144 69.888-126.208 25.6q-67.072 0-125.44-25.6t-101.632-69.888-68.096-104.192-24.832-128zM354.304 454.144v-178.688h-84.992v457.216h150.016q89.6 0 132.352-32.512t42.752-95.488q0-47.104-26.624-81.152t-80.384-47.36q8.704-5.632 15.616-13.568t13.056-18.688l112.64-168.448h-80.896q-17.92 0-26.112 13.824l-98.304 150.528q-4.608 7.168-11.008 10.752t-19.712 3.584h-38.4zM354.304 516.096h56.832q28.16 0 47.104 5.12t30.72 15.104 16.896 24.32 5.12 33.28q0 18.432-4.608 32.256t-15.104 23.040-28.16 13.568-43.776 4.352h-65.024v-151.040z" />
<glyph unicode="&#xaf;" glyph-name="uniAF" d="M56.832 827.904h295.936v-63.488h-295.936v63.488z" />
<glyph unicode="&#xb0;" glyph-name="uniB0" horiz-adv-x="424" d="M43.52 712.704q0 34.816 13.056 65.024t35.584 52.736 53.504 35.584 66.304 13.056 66.304-13.056 53.76-35.584 35.84-52.736 13.056-65.024q0-33.792-13.056-64.256t-35.84-52.992-53.76-35.84-66.304-13.312-66.304 13.312-53.504 35.84-35.584 52.992-13.056 64.256zM112.64 712.192q0-20.992 7.424-39.168t20.736-31.744 31.488-21.248 39.68-7.68 39.68 7.68 31.488 21.248 20.992 31.744 7.68 39.168-7.68 39.424-20.992 32.256-31.488 21.76-39.68 7.936-39.68-7.936-31.488-21.76-20.736-32.256-7.424-39.424z" />
<glyph unicode="&#xb1;" glyph-name="uniB1" horiz-adv-x="594" d="M335.872 754.688v-190.464h207.36v-73.728h-207.36v-185.856h-78.848v185.856h-206.336v73.728h206.336v190.464h78.848zM50.688 250.368h492.544v-73.728h-492.544v73.728z" />
<glyph unicode="&#xb2;" glyph-name="uniB2" horiz-adv-x="342" d="M173.568 974.848q27.136 0 49.152-7.68t37.376-22.016 23.808-34.048 8.448-43.264q0-20.48-6.4-38.144t-17.152-33.536-24.576-30.976-28.672-30.464l-80.384-81.408q12.288 3.584 24.832 5.632t23.296 2.048h94.208q11.264 0 17.408-6.144t6.144-16.384v-41.984h-264.192v23.040q0 7.168 2.56 14.848t9.216 14.336l112.128 111.104q25.6 24.576 43.008 51.712t17.408 53.76q0 25.088-14.592 38.656t-36.608 13.568q-22.528 0-36.352-11.776t-20.992-32.256q-5.12-9.216-12.032-13.312t-21.248-1.536l-38.912 6.656q8.192 55.296 43.776 82.432t89.344 27.136z" />
<glyph unicode="&#xb3;" glyph-name="uniB3" horiz-adv-x="342" d="M174.592 974.848q26.624 0 48.128-7.68t36.608-20.736 23.296-30.72 8.192-37.632q0-64.512-59.392-88.576 32.768-9.728 49.92-29.44t17.152-50.944q0-29.184-10.752-50.944t-28.928-36.352-41.472-22.016-47.872-7.424q-28.672 0-50.432 6.144t-37.632 18.688-27.136 31.232-19.456 43.776l30.208 12.8q11.776 4.608 22.528 2.304t14.848-11.52q2.56-5.12 6.656-12.544t11.264-14.592 18.176-12.288 27.392-5.12q14.848 0 26.368 4.864t19.2 12.544 11.776 17.408 4.096 19.968q0 14.848-4.096 25.6t-14.080 17.664-26.112 10.24-39.68 3.328v47.104q44.032 0.512 61.696 15.36t17.664 40.448q0 24.576-14.080 37.632t-37.632 13.056-37.632-11.52-19.712-30.976q-5.632-10.752-11.776-14.336t-19.968-1.024l-36.352 6.656q4.096 27.648 15.36 48.128t28.16 34.048 38.656 20.48 46.848 6.912z" />
<glyph unicode="&#xb4;" glyph-name="uniB4" d="M358.4 878.592l-120.32-132.096q-7.168-8.192-14.592-11.52t-18.688-3.328h-58.368l75.776 123.904q7.168 11.776 15.616 17.408t25.856 5.632h94.72z" />
<glyph unicode="&#xb5;" glyph-name="uniB5" horiz-adv-x="667" d="M188.416 655.36v-313.344q0-28.16 6.656-50.688t19.712-38.4 32.768-24.576 46.336-8.704q45.568 0 79.616 24.832t56.576 69.376v341.504h97.28v-376.832q0-38.912 19.712-57.088t52.992-18.176h31.232v-38.912q0-12.8-17.152-23.296t-47.872-10.496q-21.504 0-41.216 6.144t-36.096 19.2-28.16 32.512-17.408 46.592q-29.696-45.056-68.352-70.4t-87.296-25.344q-37.376 0-64.768 11.264t-46.848 33.28q3.584-21.504 4.864-43.008t1.28-40.448v-139.264h-48.128q-20.992 0-32 10.752t-11.008 30.72v652.8h97.28z" />
<glyph unicode="&#xb6;" glyph-name="uniB6" horiz-adv-x="723" d="M687.104 870.4v-82.944h-111.616v-755.2h-85.504v755.2h-138.24v-755.2h-85.504v438.784q-53.248 0-95.744 15.616t-72.704 43.008-46.336 64-16.128 78.080q0 44.544 16.128 81.152t46.336 62.72 72.704 40.448 95.744 14.336h420.864z" />
<glyph unicode="&#xb7;" glyph-name="uniB7" horiz-adv-x="269" d="M54.784 439.808q0 16.896 6.144 31.488t16.896 25.344 25.088 17.152 30.72 6.4q16.896 0 31.488-6.4t25.344-17.152 17.152-25.344 6.4-31.488q0-16.384-6.4-30.72t-17.152-25.088-25.344-17.152-31.488-6.4q-16.384 0-30.72 6.4t-25.088 17.152-16.896 25.088-6.144 30.72z" />
<glyph unicode="&#xb8;" glyph-name="uniB8" d="M144.384 8.192q3.072 0 7.168-1.792t9.728-3.84 13.056-3.84 18.176-1.792q20.48 0 31.232 8.192t10.752 20.992q0 18.944-20.992 26.368t-60.416 12.544l28.16 84.48h54.784l-14.336-50.688q47.616-9.728 68.352-28.16t20.736-46.080q0-16.384-8.192-29.696t-23.296-22.528-35.84-14.336-45.824-5.12q-20.992 0-39.68 4.096t-35.072 11.264l9.216 30.208q3.072 9.728 12.288 9.728z" />
<glyph unicode="&#xb9;" glyph-name="uniB9" horiz-adv-x="342" d="M79.872 642.56h74.24v218.112l2.56 23.040-52.224-43.008q-9.728-7.168-18.688-4.352t-13.056 7.424l-21.504 30.208 115.2 97.792h58.368v-329.216h65.024v-46.080h-209.92v46.080z" />
<glyph unicode="&#xba;" glyph-name="uniBA" horiz-adv-x="412" d="M206.848 879.104q35.84 0 65.28-11.008t50.176-31.744 32-50.176 11.264-66.304-11.264-66.56-32-50.432-50.176-32-65.28-11.264q-36.352 0-66.048 11.264t-50.688 32-32.512 50.432-11.52 66.56 11.52 66.304 32.512 50.176 50.688 31.744 66.048 11.008zM206.848 617.472q41.472 0 61.952 25.856t20.48 76.032-20.48 76.032-61.952 25.856q-43.52 0-64-25.856t-20.48-76.032 20.48-76.032 64-25.856z" />
<glyph unicode="&#xbb;" glyph-name="uniBB" horiz-adv-x="444" d="M239.616 414.208v-12.8l-128.512-199.68-31.232 14.848q-12.8 6.144-15.104 16.896t4.864 23.552l79.872 131.584q3.584 6.144 7.168 10.752t7.168 8.192q-3.584 3.072-7.168 7.68t-7.168 11.264l-79.872 131.584q-7.168 12.8-4.864 23.552t15.104 16.896l31.232 14.848zM393.728 414.208v-12.8l-128.512-199.68-31.232 14.848q-12.8 6.144-15.104 16.896t4.864 23.552l79.872 131.584q3.584 6.144 7.168 10.752t7.168 8.192q-3.584 3.072-7.168 7.68t-7.168 11.264l-79.872 131.584q-7.168 12.8-4.864 23.552t15.104 16.896l31.232 14.848z" />
<glyph unicode="&#xbc;" glyph-name="uniBC" horiz-adv-x="753" d="M216.576 164.352q-10.24-16.384-22.016-22.528t-27.648-6.144h-41.472l420.352 701.44q9.728 15.872 22.016 24.576t30.208 8.704h41.472zM72.192 542.208h74.24v218.112l2.56 23.040-52.224-43.008q-9.728-7.168-18.688-4.352t-13.056 7.424l-21.504 30.208 115.2 97.792h58.368v-329.216h65.024v-46.080h-209.92v46.080zM658.432 273.92h54.272v-35.84q0-5.632-3.584-9.728t-10.24-4.096h-40.448v-88.576h-58.88v88.576h-155.136q-10.24 0-15.616 4.352t-6.912 11.008l-5.632 30.72 175.104 239.616h67.072v-236.032zM599.552 390.656q0 10.24 0.512 22.016t2.56 24.576l-119.808-163.328h116.736v116.736z" />
<glyph unicode="&#xbd;" glyph-name="uniBD" horiz-adv-x="744" d="M196.096 164.352q-10.24-16.384-22.016-22.528t-27.648-6.144h-41.472l420.352 701.44q9.728 15.872 22.016 24.576t30.208 8.704h41.472zM73.216 542.208h74.24v218.112l2.56 23.040-52.224-43.008q-9.728-7.168-18.688-4.352t-13.056 7.424l-21.504 30.208 115.2 97.792h58.368v-329.216h65.024v-46.080h-209.92v46.080zM571.392 514.048q27.136 0 49.152-7.68t37.376-22.016 23.808-34.048 8.448-43.264q0-20.48-6.4-38.144t-17.152-33.536-24.576-30.976-28.672-30.464l-80.384-81.408q12.288 3.584 24.832 5.632t23.296 2.048h94.208q11.264 0 17.408-6.144t6.144-16.384v-41.984h-264.192v23.040q0 7.168 2.56 14.848t9.216 14.336l112.128 111.104q25.6 24.576 43.008 51.712t17.408 53.76q0 25.088-14.592 38.656t-36.608 13.568q-22.528 0-36.352-11.776t-20.992-32.256q-5.12-9.216-12.032-13.312t-21.248-1.536l-38.912 6.656q8.192 55.296 43.776 82.432t89.344 27.136z" />
<glyph unicode="&#xbe;" glyph-name="uniBE" horiz-adv-x="761" d="M227.84 164.352q-10.24-16.384-22.016-22.528t-27.648-6.144h-41.472l420.352 701.44q9.728 15.872 22.016 24.576t30.208 8.704h41.472zM183.296 874.496q26.624 0 48.128-7.68t36.608-20.736 23.296-30.72 8.192-37.632q0-64.512-59.392-88.576 32.768-9.728 49.92-29.44t17.152-50.944q0-29.184-10.752-50.944t-28.928-36.352-41.472-22.016-47.872-7.424q-28.672 0-50.432 6.144t-37.632 18.688-27.136 31.232-19.456 43.776l30.208 12.8q11.776 4.608 22.528 2.304t14.848-11.52q2.56-5.12 6.656-12.544t11.264-14.592 18.176-12.288 27.392-5.12q14.848 0 26.368 4.864t19.2 12.544 11.776 17.408 4.096 19.968q0 14.848-4.096 25.6t-14.080 17.664-26.112 10.24-39.68 3.328v47.104q44.032 0.512 61.696 15.36t17.664 40.448q0 24.576-14.080 37.632t-37.632 13.056-37.632-11.52-19.712-30.976q-5.632-10.752-11.776-14.336t-19.968-1.024l-36.352 6.656q4.096 27.648 15.36 48.128t28.16 34.048 38.656 20.48 46.848 6.912zM667.136 273.92h54.272v-35.84q0-5.632-3.584-9.728t-10.24-4.096h-40.448v-88.576h-58.88v88.576h-155.136q-10.24 0-15.616 4.352t-6.912 11.008l-5.632 30.72 175.104 239.616h67.072v-236.032zM608.256 390.656q0 10.24 0.512 22.016t2.56 24.576l-119.808-163.328h116.736v116.736z" />
<glyph unicode="&#xbf;" glyph-name="uniBF" horiz-adv-x="453" d="M417.28 27.648q-16.384-14.848-35.584-28.16t-42.24-23.552-49.664-16.128-57.856-5.888q-40.96 0-75.776 11.264t-60.16 32.512-39.68 51.968-14.336 69.12q0 38.912 11.52 66.048t28.928 46.592 38.144 33.024 38.912 25.6 31.232 24.576 15.616 29.44l9.216 77.824h66.56l6.656-84.48q2.048-24.576-8.704-41.472t-27.904-30.208-38.144-25.344-38.912-27.136-30.208-35.584-12.288-50.688q0-21.504 8.448-38.656t23.040-29.44 34.048-18.688 41.984-6.4q30.72 0 52.48 7.424t37.12 16.384 25.088 16.384 15.872 7.424q13.824 0 20.992-12.288zM184.832 596.992q0 13.824 5.12 25.856t13.824 21.248 20.992 14.336 26.112 5.12 25.856-5.12 20.992-14.336 14.080-21.248 5.12-25.856q0-14.336-5.12-26.368t-14.080-20.992-20.992-14.080-25.856-5.12-26.112 5.12-20.992 14.080-13.824 20.992-5.12 26.368z" />
<glyph unicode="&#xc0;" glyph-name="uniC0" horiz-adv-x="696" d="M694.784 135.68h-81.92q-13.824 0-22.528 6.912t-13.312 18.176l-66.048 172.544h-326.144l-66.048-172.544q-3.072-9.728-12.544-17.408t-22.784-7.68h-81.92l292.864 734.72h107.008zM214.016 409.088h267.776l-111.104 289.28q-5.632 13.824-11.52 32t-11.52 39.68q-5.632-21.504-11.264-39.936t-11.264-32.256zM258.56 1084.928q8.704 0 15.104-0.512t11.264-2.304 9.216-5.376 8.96-9.216l115.712-140.288h-69.632q-11.776 0-18.432 1.536t-15.36 8.704l-160.256 147.456h103.424z" />
<glyph unicode="&#xc1;" glyph-name="uniC1" horiz-adv-x="696" d="M694.784 135.68h-81.92q-13.824 0-22.528 6.912t-13.312 18.176l-66.048 172.544h-326.144l-66.048-172.544q-3.072-9.728-12.544-17.408t-22.784-7.68h-81.92l292.864 734.72h107.008zM214.016 409.088h267.776l-111.104 289.28q-5.632 13.824-11.52 32t-11.52 39.68q-5.632-21.504-11.264-39.936t-11.264-32.256zM545.28 1084.928l-166.912-146.944q-8.192-7.168-15.36-8.96t-18.944-1.792h-69.632l116.736 140.288q4.608 6.144 8.704 9.472t9.216 5.12 11.52 2.304 15.104 0.512h109.568z" />
<glyph unicode="&#xc2;" glyph-name="uniC2" horiz-adv-x="696" d="M694.784 135.68h-81.92q-13.824 0-22.528 6.912t-13.312 18.176l-66.048 172.544h-326.144l-66.048-172.544q-3.072-9.728-12.544-17.408t-22.784-7.68h-81.92l292.864 734.72h107.008zM214.016 409.088h267.776l-111.104 289.28q-5.632 13.824-11.52 32t-11.52 39.68q-5.632-21.504-11.264-39.936t-11.264-32.256zM515.072 927.232h-70.656q-6.656 0-15.616 2.304t-18.176 13.568l-56.832 69.12q-4.096 4.608-6.144 9.216l-6.144-9.216-56.832-69.12q-9.216-11.264-18.176-13.568t-15.616-2.304h-67.584l122.368 139.264h87.040z" />
<glyph unicode="&#xc3;" glyph-name="uniC3" horiz-adv-x="696" d="M694.784 135.68h-81.92q-13.824 0-22.528 6.912t-13.312 18.176l-66.048 172.544h-326.144l-66.048-172.544q-3.072-9.728-12.544-17.408t-22.784-7.68h-81.92l292.864 734.72h107.008zM214.016 409.088h267.776l-111.104 289.28q-5.632 13.824-11.52 32t-11.52 39.68q-5.632-21.504-11.264-39.936t-11.264-32.256zM412.16 990.208q11.776 0 20.48 4.608t14.592 11.776 8.96 16.128 3.072 18.176h59.392q0-22.528-6.144-43.264t-18.432-36.864-29.952-25.6-40.704-9.472q-23.552 0-41.984 8.192t-34.048 18.176-29.44 18.432-28.16 8.448q-11.776 0-20.224-4.608t-14.336-12.032-8.96-16.384-3.072-18.176h-60.416q0 22.528 6.4 43.52t18.688 37.12 30.208 25.856 40.448 9.728q23.552 0 42.24-8.448t34.304-18.432 29.184-18.432 27.904-8.448z" />
<glyph unicode="&#xc4;" glyph-name="uniC4" horiz-adv-x="696" d="M694.784 135.68h-81.92q-13.824 0-22.528 6.912t-13.312 18.176l-66.048 172.544h-326.144l-66.048-172.544q-3.072-9.728-12.544-17.408t-22.784-7.68h-81.92l292.864 734.72h107.008zM214.016 409.088h267.776l-111.104 289.28q-5.632 13.824-11.52 32t-11.52 39.68q-5.632-21.504-11.264-39.936t-11.264-32.256zM297.984 988.672q0-11.776-4.864-22.272t-12.8-18.176-18.688-12.288-23.040-4.608q-11.264 0-21.76 4.608t-18.432 12.288-12.544 18.176-4.608 22.272q0 12.288 4.608 23.040t12.544 18.688 18.432 12.8 21.76 4.864q12.288 0 23.040-4.864t18.688-12.8 12.8-18.688 4.864-23.040zM514.048 988.672q0-11.776-4.608-22.272t-12.8-18.176-18.688-12.288-22.272-4.608q-12.288 0-22.784 4.608t-18.432 12.288-12.544 18.176-4.608 22.272q0 12.288 4.608 23.040t12.544 18.688 18.432 12.8 22.784 4.864q11.776 0 22.272-4.864t18.688-12.8 12.8-18.688 4.608-23.040z" />
<glyph unicode="&#xc5;" glyph-name="uniC5" horiz-adv-x="696" d="M694.784 135.68h-81.92q-13.824 0-22.528 6.912t-13.312 18.176l-66.048 172.544h-326.144l-66.048-172.544q-3.072-9.728-12.544-17.408t-22.784-7.68h-81.92l292.864 734.72h107.008zM214.016 409.088h267.776l-111.104 289.28q-5.632 13.824-11.52 32t-11.52 39.68q-5.632-21.504-11.264-39.936t-11.264-32.256zM249.344 1005.568q0 20.48 7.936 37.376t21.504 29.184 31.232 18.944 37.12 6.656q19.968 0 38.144-6.656t32-18.944 21.76-29.184 7.936-37.376q0-19.968-7.936-36.864t-21.76-28.672-32-18.432-38.144-6.656q-19.456 0-37.12 6.656t-31.232 18.432-21.504 28.672-7.936 36.864zM297.472 1005.568q0-22.016 13.568-36.096t37.632-14.080q22.528 0 36.352 14.080t13.824 36.096q0 23.040-13.824 36.864t-36.352 13.824q-24.064 0-37.632-13.824t-13.568-36.864z" />
<glyph unicode="&#xc6;" glyph-name="uniC6" horiz-adv-x="953" d="M908.288 784.384h-378.368l29.184-236.544h282.112v-82.944h-271.36l30.208-243.2h308.736l-0.512-86.016h-397.312l-24.576 197.632h-281.6l-88.576-173.056q-5.632-11.264-15.616-17.92t-24.832-6.656h-80.384l385.536 734.72h527.36v-86.016zM243.712 409.088h233.472l-47.616 381.952q-7.168-22.016-14.592-41.216t-15.104-35.584z" />
<glyph unicode="&#xc7;" glyph-name="uniC7" horiz-adv-x="683" d="M338.944 8.192q3.072 0 7.168-1.792t9.728-3.84 13.056-3.84 18.176-1.792q20.48 0 31.232 8.192t10.752 20.992q0 18.944-20.992 26.368t-60.416 12.544l20.992 63.488q-73.728 5.12-133.12 34.56t-101.12 78.592-64.512 115.712-22.784 145.92q0 82.944 26.112 152.064t73.728 118.528 113.92 77.056 146.176 27.648q78.336 0 139.008-25.6t105.728-68.096l-34.816-49.152q-3.584-5.12-8.448-8.448t-13.568-3.328q-9.728 0-22.784 9.728t-34.304 21.76-52.992 21.76-78.336 9.728q-55.296 0-101.632-19.456t-79.616-55.808-51.712-89.088-18.432-119.296q0-67.584 19.2-120.576t52.736-89.344 79.104-55.552 97.792-19.2q32.256 0 57.856 3.84t47.36 11.52 40.704 19.968 37.888 29.184q4.096 3.584 8.448 5.888t9.472 2.304q8.704 0 15.36-6.656l41.984-46.080q-41.472-48.64-99.84-77.312t-138.752-32.768l-8.192-29.696q47.616-9.728 68.352-28.16t20.736-46.080q0-16.384-8.192-29.696t-23.296-22.528-35.84-14.336-45.824-5.12q-20.992 0-39.68 4.096t-35.072 11.264l9.216 30.208q3.072 9.728 12.288 9.728z" />
<glyph unicode="&#xc8;" glyph-name="uniC8" horiz-adv-x="591" d="M546.304 870.4v-86.016h-348.672v-236.544h281.088v-82.944h-281.088v-243.2h349.184l-0.512-86.016h-454.656v734.72h454.656zM236.032 1084.928q8.704 0 15.104-0.512t11.264-2.304 9.216-5.376 8.96-9.216l115.712-140.288h-69.632q-11.776 0-18.432 1.536t-15.36 8.704l-160.256 147.456h103.424z" />
<glyph unicode="&#xc9;" glyph-name="uniC9" horiz-adv-x="591" d="M546.304 870.4v-86.016h-348.672v-236.544h281.088v-82.944h-281.088v-243.2h349.184l-0.512-86.016h-454.656v734.72h454.656zM522.752 1084.928l-166.912-146.944q-8.192-7.168-15.36-8.96t-18.944-1.792h-69.632l116.736 140.288q4.608 6.144 8.704 9.472t9.216 5.12 11.52 2.304 15.104 0.512h109.568z" />
<glyph unicode="&#xca;" glyph-name="uniCA" horiz-adv-x="591" d="M546.304 870.4v-86.016h-348.672v-236.544h281.088v-82.944h-281.088v-243.2h349.184l-0.512-86.016h-454.656v734.72h454.656zM493.056 927.232h-70.656q-6.656 0-15.616 2.304t-18.176 13.568l-56.832 69.12q-4.096 4.608-6.144 9.216l-6.144-9.216-56.832-69.12q-9.216-11.264-18.176-13.568t-15.616-2.304h-67.584l122.368 139.264h87.040z" />
<glyph unicode="&#xcb;" glyph-name="uniCB" horiz-adv-x="591" d="M546.304 870.4v-86.016h-348.672v-236.544h281.088v-82.944h-281.088v-243.2h349.184l-0.512-86.016h-454.656v734.72h454.656zM275.968 988.672q0-11.776-4.864-22.272t-12.8-18.176-18.688-12.288-23.040-4.608q-11.264 0-21.76 4.608t-18.432 12.288-12.544 18.176-4.608 22.272q0 12.288 4.608 23.040t12.544 18.688 18.432 12.8 21.76 4.864q12.288 0 23.040-4.864t18.688-12.8 12.8-18.688 4.864-23.040zM492.032 988.672q0-11.776-4.608-22.272t-12.8-18.176-18.688-12.288-22.272-4.608q-12.288 0-22.784 4.608t-18.432 12.288-12.544 18.176-4.608 22.272q0 12.288 4.608 23.040t12.544 18.688 18.432 12.8 22.784 4.864q11.776 0 22.272-4.864t18.688-12.8 12.8-18.688 4.608-23.040z" />
<glyph unicode="&#xcc;" glyph-name="uniCC" horiz-adv-x="290" d="M197.632 135.68h-105.984v734.72h105.984v-734.72zM56.832 1084.928q8.704 0 15.104-0.512t11.264-2.304 9.216-5.376 8.96-9.216l115.712-140.288h-69.632q-11.776 0-18.432 1.536t-15.36 8.704l-160.256 147.456h103.424z" />
<glyph unicode="&#xcd;" glyph-name="uniCD" horiz-adv-x="290" d="M197.632 135.68h-105.984v734.72h105.984v-734.72zM343.552 1084.928l-166.912-146.944q-8.192-7.168-15.36-8.96t-18.944-1.792h-69.632l116.736 140.288q4.608 6.144 8.704 9.472t9.216 5.12 11.52 2.304 15.104 0.512h109.568z" />
<glyph unicode="&#xce;" glyph-name="uniCE" horiz-adv-x="290" d="M197.632 135.68h-105.984v734.72h105.984v-734.72zM313.856 927.232h-70.656q-6.656 0-15.616 2.304t-18.176 13.568l-56.832 69.12q-4.096 4.608-6.144 9.216l-6.144-9.216-56.832-69.12q-9.216-11.264-18.176-13.568t-15.616-2.304h-67.584l122.368 139.264h87.040z" />
<glyph unicode="&#xcf;" glyph-name="uniCF" horiz-adv-x="290" d="M197.632 135.68h-105.984v734.72h105.984v-734.72zM96.768 988.672q0-11.776-4.864-22.272t-12.8-18.176-18.688-12.288-23.040-4.608q-11.264 0-21.76 4.608t-18.432 12.288-12.544 18.176-4.608 22.272q0 12.288 4.608 23.040t12.544 18.688 18.432 12.8 21.76 4.864q12.288 0 23.040-4.864t18.688-12.8 12.8-18.688 4.864-23.040zM312.832 988.672q0-11.776-4.608-22.272t-12.8-18.176-18.688-12.288-22.272-4.608q-12.288 0-22.784 4.608t-18.432 12.288-12.544 18.176-4.608 22.272q0 12.288 4.608 23.040t12.544 18.688 18.432 12.8 22.784 4.864q11.776 0 22.272-4.864t18.688-12.8 12.8-18.688 4.608-23.040z" />
<glyph unicode="&#xd0;" glyph-name="uniD0" horiz-adv-x="787" d="M1.024 537.088h99.328v333.312h275.456q81.408 0 148.48-26.624t114.944-74.752 74.24-115.968 26.368-149.76q0-82.432-26.368-150.272t-74.24-116.224-114.944-74.752-148.48-26.368h-275.456v339.456h-99.328v61.952zM631.296 503.296q0 66.048-17.92 118.528t-51.456 88.576-80.64 55.296-105.472 19.2h-169.472v-247.808h146.432v-61.952h-146.432v-253.952h169.472q58.368 0 105.472 19.2t80.64 55.296 51.456 88.576 17.92 119.040z" />
<glyph unicode="&#xd1;" glyph-name="uniD1" horiz-adv-x="783" d="M146.432 870.4q13.824 0 20.736-3.072t15.616-14.848l418.304-542.208q-1.024 13.824-1.792 27.648t-0.768 25.6v506.88h92.672v-734.72h-53.248q-12.288 0-20.736 4.352t-16.64 14.592l-418.816 542.208q1.024-13.312 1.792-26.368t0.768-24.32v-510.464h-92.672v734.72h54.784zM462.848 989.696q11.776 0 20.48 4.608t14.592 11.776 8.96 16.128 3.072 18.176h59.392q0-22.528-6.144-43.264t-18.432-36.864-29.952-25.6-40.704-9.472q-23.552 0-41.984 8.192t-34.048 18.176-29.44 18.432-28.16 8.448q-11.776 0-20.224-4.608t-14.336-12.032-8.96-16.384-3.072-18.176h-60.416q0 22.528 6.4 43.52t18.688 37.12 30.208 25.856 40.448 9.728q23.552 0 42.24-8.448t34.304-18.432 29.184-18.432 27.904-8.448z" />
<glyph unicode="&#xd2;" glyph-name="uniD2" horiz-adv-x="821" d="M774.144 503.296q0-82.432-26.368-151.552t-73.984-118.784-114.688-77.312-148.48-27.648-148.224 27.648-114.944 77.312-74.496 118.784-26.368 151.552q0 81.92 26.368 151.040t74.496 118.784 114.944 77.568 148.224 27.904 148.48-27.904 114.688-77.568 73.984-118.784 26.368-151.040zM666.112 503.296q0 66.048-17.92 118.784t-51.456 89.344-80.64 56.064-105.472 19.456-105.728-19.456-80.896-56.064-51.712-89.344-18.176-118.784q0-66.56 18.176-119.296t51.712-89.088 80.896-55.808 105.728-19.456 105.472 19.456 80.64 55.808 51.456 89.088 17.92 119.296zM322.048 1084.928q8.704 0 15.104-0.512t11.264-2.304 9.216-5.376 8.96-9.216l115.712-140.288h-69.632q-11.776 0-18.432 1.536t-15.36 8.704l-160.256 147.456h103.424z" />
<glyph unicode="&#xd3;" glyph-name="uniD3" horiz-adv-x="821" d="M774.144 503.296q0-82.432-26.368-151.552t-73.984-118.784-114.688-77.312-148.48-27.648-148.224 27.648-114.944 77.312-74.496 118.784-26.368 151.552q0 81.92 26.368 151.040t74.496 118.784 114.944 77.568 148.224 27.904 148.48-27.904 114.688-77.568 73.984-118.784 26.368-151.040zM666.112 503.296q0 66.048-17.92 118.784t-51.456 89.344-80.64 56.064-105.472 19.456-105.728-19.456-80.896-56.064-51.712-89.344-18.176-118.784q0-66.56 18.176-119.296t51.712-89.088 80.896-55.808 105.728-19.456 105.472 19.456 80.64 55.808 51.456 89.088 17.92 119.296zM608.768 1084.928l-166.912-146.944q-8.192-7.168-15.36-8.96t-18.944-1.792h-69.632l116.736 140.288q4.608 6.144 8.704 9.472t9.216 5.12 11.52 2.304 15.104 0.512h109.568z" />
<glyph unicode="&#xd4;" glyph-name="uniD4" horiz-adv-x="821" d="M774.144 503.296q0-82.432-26.368-151.552t-73.984-118.784-114.688-77.312-148.48-27.648-148.224 27.648-114.944 77.312-74.496 118.784-26.368 151.552q0 81.92 26.368 151.040t74.496 118.784 114.944 77.568 148.224 27.904 148.48-27.904 114.688-77.568 73.984-118.784 26.368-151.040zM666.112 503.296q0 66.048-17.92 118.784t-51.456 89.344-80.64 56.064-105.472 19.456-105.728-19.456-80.896-56.064-51.712-89.344-18.176-118.784q0-66.56 18.176-119.296t51.712-89.088 80.896-55.808 105.728-19.456 105.472 19.456 80.64 55.808 51.456 89.088 17.92 119.296zM579.072 927.232h-70.656q-6.656 0-15.616 2.304t-18.176 13.568l-56.832 69.12q-4.096 4.608-6.144 9.216l-6.144-9.216-56.832-69.12q-9.216-11.264-18.176-13.568t-15.616-2.304h-67.584l122.368 139.264h87.040z" />
<glyph unicode="&#xd5;" glyph-name="uniD5" horiz-adv-x="821" d="M774.144 503.296q0-82.432-26.368-151.552t-73.984-118.784-114.688-77.312-148.48-27.648-148.224 27.648-114.944 77.312-74.496 118.784-26.368 151.552q0 81.92 26.368 151.040t74.496 118.784 114.944 77.568 148.224 27.904 148.48-27.904 114.688-77.568 73.984-118.784 26.368-151.040zM666.112 503.296q0 66.048-17.92 118.784t-51.456 89.344-80.64 56.064-105.472 19.456-105.728-19.456-80.896-56.064-51.712-89.344-18.176-118.784q0-66.56 18.176-119.296t51.712-89.088 80.896-55.808 105.728-19.456 105.472 19.456 80.64 55.808 51.456 89.088 17.92 119.296zM476.16 990.208q11.776 0 20.48 4.608t14.592 11.776 8.96 16.128 3.072 18.176h59.392q0-22.528-6.144-43.264t-18.432-36.864-29.952-25.6-40.704-9.472q-23.552 0-41.984 8.192t-34.048 18.176-29.44 18.432-28.16 8.448q-11.776 0-20.224-4.608t-14.336-12.032-8.96-16.384-3.072-18.176h-60.416q0 22.528 6.4 43.52t18.688 37.12 30.208 25.856 40.448 9.728q23.552 0 42.24-8.448t34.304-18.432 29.184-18.432 27.904-8.448z" />
<glyph unicode="&#xd6;" glyph-name="uniD6" horiz-adv-x="821" d="M774.144 503.296q0-82.432-26.368-151.552t-73.984-118.784-114.688-77.312-148.48-27.648-148.224 27.648-114.944 77.312-74.496 118.784-26.368 151.552q0 81.92 26.368 151.040t74.496 118.784 114.944 77.568 148.224 27.904 148.48-27.904 114.688-77.568 73.984-118.784 26.368-151.040zM666.112 503.296q0 66.048-17.92 118.784t-51.456 89.344-80.64 56.064-105.472 19.456-105.728-19.456-80.896-56.064-51.712-89.344-18.176-118.784q0-66.56 18.176-119.296t51.712-89.088 80.896-55.808 105.728-19.456 105.472 19.456 80.64 55.808 51.456 89.088 17.92 119.296zM361.984 988.672q0-11.776-4.864-22.272t-12.8-18.176-18.688-12.288-23.040-4.608q-11.264 0-21.76 4.608t-18.432 12.288-12.544 18.176-4.608 22.272q0 12.288 4.608 23.040t12.544 18.688 18.432 12.8 21.76 4.864q12.288 0 23.040-4.864t18.688-12.8 12.8-18.688 4.864-23.040zM578.048 988.672q0-11.776-4.608-22.272t-12.8-18.176-18.688-12.288-22.272-4.608q-12.288 0-22.784 4.608t-18.432 12.288-12.544 18.176-4.608 22.272q0 12.288 4.608 23.040t12.544 18.688 18.432 12.8 22.784 4.864q11.776 0 22.272-4.864t18.688-12.8 12.8-18.688 4.608-23.040z" />
<glyph unicode="&#xd7;" glyph-name="uniD7" horiz-adv-x="594" d="M523.776 652.8l-174.080-174.080 180.224-179.712-51.712-51.712-180.224 179.712-181.248-180.736-51.712 51.712 180.736 181.248-175.104 174.592 51.712 52.736 175.104-175.616 174.080 174.592z" />
<glyph unicode="&#xd8;" glyph-name="uniD8" horiz-adv-x="821" d="M774.144 503.296q0-82.432-26.368-151.552t-73.984-118.784-114.688-77.312-148.48-27.648q-54.272 0-102.144 12.544t-88.32 35.584l-49.152-66.56q-11.776-16.384-27.904-23.040t-31.488-6.656h-42.496l98.304 134.144q-57.344 50.176-89.088 123.904t-31.744 165.376q0 81.92 26.368 151.040t74.496 118.784 114.944 77.568 148.224 27.904q58.88 0 109.568-14.592t93.184-41.728l39.936 54.272q5.12 7.68 9.728 12.8t9.472 8.192 11.008 4.608 14.848 1.536h54.784l-89.088-121.344q52.736-50.176 81.408-121.344t28.672-157.696zM154.112 503.296q0-68.096 18.688-120.576t52.992-89.344l331.264 452.096q-30.208 19.968-66.816 30.72t-79.616 10.752q-58.368 0-105.728-19.456t-80.896-56.064-51.712-89.344-18.176-118.784zM666.112 503.296q0 61.952-15.872 111.616t-45.568 86.528l-328.192-448.512q28.16-16.384 61.952-24.832t72.192-8.448q58.368 0 105.472 19.456t80.64 55.808 51.456 89.088 17.92 119.296z" />
<glyph unicode="&#xd9;" glyph-name="uniD9" horiz-adv-x="755" d="M377.344 220.16q44.544 0 79.616 15.104t59.392 42.24 37.12 64.768 12.8 83.2v444.928h105.472v-444.928q0-64-20.48-118.784t-58.368-94.72-92.672-62.464-122.88-22.528q-68.608 0-123.136 22.528t-92.672 62.464-58.624 94.72-20.48 118.784v444.928h105.472v-444.928q0-45.056 12.8-82.688t37.12-65.024 59.648-42.496 79.872-15.104zM287.744 1084.928q8.704 0 15.104-0.512t11.264-2.304 9.216-5.376 8.96-9.216l115.712-140.288h-69.632q-11.776 0-18.432 1.536t-15.36 8.704l-160.256 147.456h103.424z" />
<glyph unicode="&#xda;" glyph-name="uniDA" horiz-adv-x="755" d="M377.344 220.16q44.544 0 79.616 15.104t59.392 42.24 37.12 64.768 12.8 83.2v444.928h105.472v-444.928q0-64-20.48-118.784t-58.368-94.72-92.672-62.464-122.88-22.528q-68.608 0-123.136 22.528t-92.672 62.464-58.624 94.72-20.48 118.784v444.928h105.472v-444.928q0-45.056 12.8-82.688t37.12-65.024 59.648-42.496 79.872-15.104zM574.464 1084.928l-166.912-146.944q-8.192-7.168-15.36-8.96t-18.944-1.792h-69.632l116.736 140.288q4.608 6.144 8.704 9.472t9.216 5.12 11.52 2.304 15.104 0.512h109.568z" />
<glyph unicode="&#xdb;" glyph-name="uniDB" horiz-adv-x="755" d="M377.344 220.16q44.544 0 79.616 15.104t59.392 42.24 37.12 64.768 12.8 83.2v444.928h105.472v-444.928q0-64-20.48-118.784t-58.368-94.72-92.672-62.464-122.88-22.528q-68.608 0-123.136 22.528t-92.672 62.464-58.624 94.72-20.48 118.784v444.928h105.472v-444.928q0-45.056 12.8-82.688t37.12-65.024 59.648-42.496 79.872-15.104zM544.768 927.232h-70.656q-6.656 0-15.616 2.304t-18.176 13.568l-56.832 69.12q-4.096 4.608-6.144 9.216l-6.144-9.216-56.832-69.12q-9.216-11.264-18.176-13.568t-15.616-2.304h-67.584l122.368 139.264h87.040z" />
<glyph unicode="&#xdc;" glyph-name="uniDC" horiz-adv-x="755" d="M377.344 220.16q44.544 0 79.616 15.104t59.392 42.24 37.12 64.768 12.8 83.2v444.928h105.472v-444.928q0-64-20.48-118.784t-58.368-94.72-92.672-62.464-122.88-22.528q-68.608 0-123.136 22.528t-92.672 62.464-58.624 94.72-20.48 118.784v444.928h105.472v-444.928q0-45.056 12.8-82.688t37.12-65.024 59.648-42.496 79.872-15.104zM327.68 988.672q0-11.776-4.864-22.272t-12.8-18.176-18.688-12.288-23.040-4.608q-11.264 0-21.76 4.608t-18.432 12.288-12.544 18.176-4.608 22.272q0 12.288 4.608 23.040t12.544 18.688 18.432 12.8 21.76 4.864q12.288 0 23.040-4.864t18.688-12.8 12.8-18.688 4.864-23.040zM543.744 988.672q0-11.776-4.608-22.272t-12.8-18.176-18.688-12.288-22.272-4.608q-12.288 0-22.784 4.608t-18.432 12.288-12.544 18.176-4.608 22.272q0 12.288 4.608 23.040t12.544 18.688 18.432 12.8 22.784 4.864q11.776 0 22.272-4.864t18.688-12.8 12.8-18.688 4.608-23.040z" />
<glyph unicode="&#xdd;" glyph-name="uniDD" horiz-adv-x="643" d="M374.272 426.496v-290.816h-105.472v290.816l-269.312 443.904h93.184q13.824 0 22.272-6.656t14.080-17.92l162.304-278.016q9.728-18.944 17.408-35.328t13.824-32.768q5.632 16.384 13.056 33.024t16.64 35.072l161.792 278.016q5.12 9.216 13.824 16.896t22.016 7.68h93.696zM519.68 1084.928l-166.912-146.944q-8.192-7.168-15.36-8.96t-18.944-1.792h-69.632l116.736 140.288q4.608 6.144 8.704 9.472t9.216 5.12 11.52 2.304 15.104 0.512h109.568z" />
<glyph unicode="&#xde;" glyph-name="uniDE" horiz-adv-x="616" d="M197.12 273.92v-138.24h-105.472v734.72h105.472v-133.632h115.2q70.144 0 122.112-16.384t86.016-46.336 50.944-72.192 16.896-93.952-17.92-94.464-52.736-73.984-86.272-48.384-119.040-17.152h-115.2zM197.12 357.888h115.2q41.472 0 73.472 11.008t53.504 30.72 32.512 47.36 11.008 60.928q0 34.304-10.496 61.184t-31.744 45.568-53.248 28.672-75.008 9.984h-115.2v-295.424z" />
<glyph unicode="&#xdf;" glyph-name="uniDF" horiz-adv-x="598" d="M323.072 881.664q53.76 0 92.928-15.872t64.512-39.936 37.376-52.736 12.032-54.272q0-30.208-10.752-52.224t-26.88-38.656-35.072-29.44-35.072-24.832-26.88-24.576-10.752-28.928q0-19.968 13.568-33.024t33.536-24.32 43.776-23.808 43.776-30.464 33.536-44.544 13.568-66.048q0-40.448-14.848-72.192t-40.704-53.504-60.928-33.28-75.52-11.52q-49.152 0-90.112 17.92t-71.68 45.568l22.528 36.864q4.096 7.168 10.24 11.008t15.36 3.84q9.728 0 19.968-7.168t24.064-15.616 32.512-15.616 45.312-7.168q21.504 0 38.656 6.4t29.184 17.92 18.432 27.136 6.4 34.048q0 20.992-8.192 35.84t-21.76 26.112-30.976 20.224-35.328 17.92-35.328 18.944-30.976 23.552-21.76 32-8.192 44.032q0 27.648 11.264 47.872t28.416 36.352 37.12 29.952 37.12 28.672 28.416 32.768 11.264 41.984q0 16.384-6.4 32.512t-20.48 29.184-36.352 21.248-54.016 8.192q-34.816 0-62.72-10.752t-47.616-32-30.464-53.248-10.752-74.496v-503.808h-96.768v506.88q0 53.248 17.92 97.28t50.944 75.52 79.616 48.896 103.936 17.408z" />
<glyph unicode="&#xe0;" glyph-name="uniE0" horiz-adv-x="511" d="M402.944 135.68q-14.336 0-22.016 4.608t-12.288 17.92l-10.752 46.592q-19.968-18.432-39.424-33.024t-40.704-24.32-45.312-14.848-53.76-5.12q-30.72 0-57.344 8.448t-46.336 25.856-31.232 43.264-11.52 61.184q0 30.72 16.64 58.88t54.272 50.432 98.304 36.608 149.248 16.384v38.912q0 58.88-25.344 88.832t-74.496 29.952q-33.28 0-55.552-8.448t-38.4-18.432-28.416-18.176-24.576-8.192q-10.24 0-17.152 5.376t-12.032 12.544l-17.408 31.744q43.52 40.96 93.952 61.44t111.36 20.48q44.032 0 78.336-14.336t57.6-40.192 35.328-62.208 12.032-80.384v-331.776h-43.008zM207.872 195.584q23.040 0 42.752 4.608t36.864 13.312 32.512 21.248 30.72 28.416v104.448q-61.44-2.048-104.448-9.728t-69.888-19.968-39.168-29.44-12.288-37.632q0-19.968 6.4-34.304t17.664-23.296 26.368-13.312 32.512-4.352zM201.216 878.592q17.408 0 25.856-5.632t15.616-17.408l75.776-123.904h-55.296q-11.264 0-18.688 3.328t-14.592 11.52l-120.32 132.096h91.648z" />
<glyph unicode="&#xe1;" glyph-name="uniE1" horiz-adv-x="511" d="M402.944 135.68q-14.336 0-22.016 4.608t-12.288 17.92l-10.752 46.592q-19.968-18.432-39.424-33.024t-40.704-24.32-45.312-14.848-53.76-5.12q-30.72 0-57.344 8.448t-46.336 25.856-31.232 43.264-11.52 61.184q0 30.72 16.64 58.88t54.272 50.432 98.304 36.608 149.248 16.384v38.912q0 58.88-25.344 88.832t-74.496 29.952q-33.28 0-55.552-8.448t-38.4-18.432-28.416-18.176-24.576-8.192q-10.24 0-17.152 5.376t-12.032 12.544l-17.408 31.744q43.52 40.96 93.952 61.44t111.36 20.48q44.032 0 78.336-14.336t57.6-40.192 35.328-62.208 12.032-80.384v-331.776h-43.008zM207.872 195.584q23.040 0 42.752 4.608t36.864 13.312 32.512 21.248 30.72 28.416v104.448q-61.44-2.048-104.448-9.728t-69.888-19.968-39.168-29.44-12.288-37.632q0-19.968 6.4-34.304t17.664-23.296 26.368-13.312 32.512-4.352zM404.992 878.592l-120.32-132.096q-7.168-8.192-14.592-11.52t-18.688-3.328h-58.368l75.776 123.904q7.168 11.776 15.616 17.408t25.856 5.632h94.72z" />
<glyph unicode="&#xe2;" glyph-name="uniE2" horiz-adv-x="511" d="M402.944 135.68q-14.336 0-22.016 4.608t-12.288 17.92l-10.752 46.592q-19.968-18.432-39.424-33.024t-40.704-24.32-45.312-14.848-53.76-5.12q-30.72 0-57.344 8.448t-46.336 25.856-31.232 43.264-11.52 61.184q0 30.72 16.64 58.88t54.272 50.432 98.304 36.608 149.248 16.384v38.912q0 58.88-25.344 88.832t-74.496 29.952q-33.28 0-55.552-8.448t-38.4-18.432-28.416-18.176-24.576-8.192q-10.24 0-17.152 5.376t-12.032 12.544l-17.408 31.744q43.52 40.96 93.952 61.44t111.36 20.48q44.032 0 78.336-14.336t57.6-40.192 35.328-62.208 12.032-80.384v-331.776h-43.008zM207.872 195.584q23.040 0 42.752 4.608t36.864 13.312 32.512 21.248 30.72 28.416v104.448q-61.44-2.048-104.448-9.728t-69.888-19.968-39.168-29.44-12.288-37.632q0-19.968 6.4-34.304t17.664-23.296 26.368-13.312 32.512-4.352zM411.648 734.208h-65.024q-6.144 0-12.032 2.048t-12.032 8.192l-60.928 65.024q-4.096 3.584-8.704 9.728l-8.704-9.728-61.44-65.024q-11.264-10.24-24.064-10.24h-67.584l115.2 136.192h90.112z" />
<glyph unicode="&#xe3;" glyph-name="uniE3" horiz-adv-x="511" d="M402.944 135.68q-14.336 0-22.016 4.608t-12.288 17.92l-10.752 46.592q-19.968-18.432-39.424-33.024t-40.704-24.32-45.312-14.848-53.76-5.12q-30.72 0-57.344 8.448t-46.336 25.856-31.232 43.264-11.52 61.184q0 30.72 16.64 58.88t54.272 50.432 98.304 36.608 149.248 16.384v38.912q0 58.88-25.344 88.832t-74.496 29.952q-33.28 0-55.552-8.448t-38.4-18.432-28.416-18.176-24.576-8.192q-10.24 0-17.152 5.376t-12.032 12.544l-17.408 31.744q43.52 40.96 93.952 61.44t111.36 20.48q44.032 0 78.336-14.336t57.6-40.192 35.328-62.208 12.032-80.384v-331.776h-43.008zM207.872 195.584q23.040 0 42.752 4.608t36.864 13.312 32.512 21.248 30.72 28.416v104.448q-61.44-2.048-104.448-9.728t-69.888-19.968-39.168-29.44-12.288-37.632q0-19.968 6.4-34.304t17.664-23.296 26.368-13.312 32.512-4.352zM307.712 817.152q17.92 0 27.392 10.24t9.984 33.28h59.392q0-25.088-6.656-45.824t-18.944-35.584-29.44-23.040-38.144-8.192q-17.92 0-33.536 7.168t-29.44 16.128-26.368 16.128-23.808 7.168q-35.84 0-36.864-44.032h-60.416q0 25.088 6.912 45.824t19.456 35.584 29.696 23.040 37.632 8.192q18.432 0 34.048-7.168t29.44-15.872 25.856-15.872 23.808-7.168z" />
<glyph unicode="&#xe4;" glyph-name="uniE4" horiz-adv-x="511" d="M402.944 135.68q-14.336 0-22.016 4.608t-12.288 17.92l-10.752 46.592q-19.968-18.432-39.424-33.024t-40.704-24.32-45.312-14.848-53.76-5.12q-30.72 0-57.344 8.448t-46.336 25.856-31.232 43.264-11.52 61.184q0 30.72 16.64 58.88t54.272 50.432 98.304 36.608 149.248 16.384v38.912q0 58.88-25.344 88.832t-74.496 29.952q-33.28 0-55.552-8.448t-38.4-18.432-28.416-18.176-24.576-8.192q-10.24 0-17.152 5.376t-12.032 12.544l-17.408 31.744q43.52 40.96 93.952 61.44t111.36 20.48q44.032 0 78.336-14.336t57.6-40.192 35.328-62.208 12.032-80.384v-331.776h-43.008zM207.872 195.584q23.040 0 42.752 4.608t36.864 13.312 32.512 21.248 30.72 28.416v104.448q-61.44-2.048-104.448-9.728t-69.888-19.968-39.168-29.44-12.288-37.632q0-19.968 6.4-34.304t17.664-23.296 26.368-13.312 32.512-4.352zM212.48 795.648q0-12.288-4.864-22.784t-13.056-18.432-19.2-12.544-23.296-4.608q-11.776 0-22.528 4.608t-18.688 12.544-12.8 18.432-4.864 22.784 4.864 23.552 12.8 19.456 18.688 13.056 22.528 4.864q12.288 0 23.296-4.864t19.2-13.056 13.056-19.456 4.864-23.552zM409.6 795.648q0-12.288-4.864-22.784t-12.8-18.432-18.944-12.544-23.296-4.608-23.040 4.608-18.944 12.544-12.8 18.432-4.608 22.784 4.608 23.552 12.8 19.456 18.944 13.056 23.040 4.864 23.296-4.864 18.944-13.056 12.8-19.456 4.864-23.552z" />
<glyph unicode="&#xe5;" glyph-name="uniE5" horiz-adv-x="511" d="M402.944 135.68q-14.336 0-22.016 4.608t-12.288 17.92l-10.752 46.592q-19.968-18.432-39.424-33.024t-40.704-24.32-45.312-14.848-53.76-5.12q-30.72 0-57.344 8.448t-46.336 25.856-31.232 43.264-11.52 61.184q0 30.72 16.64 58.88t54.272 50.432 98.304 36.608 149.248 16.384v38.912q0 58.88-25.344 88.832t-74.496 29.952q-33.28 0-55.552-8.448t-38.4-18.432-28.416-18.176-24.576-8.192q-10.24 0-17.152 5.376t-12.032 12.544l-17.408 31.744q43.52 40.96 93.952 61.44t111.36 20.48q44.032 0 78.336-14.336t57.6-40.192 35.328-62.208 12.032-80.384v-331.776h-43.008zM207.872 195.584q23.040 0 42.752 4.608t36.864 13.312 32.512 21.248 30.72 28.416v104.448q-61.44-2.048-104.448-9.728t-69.888-19.968-39.168-29.44-12.288-37.632q0-19.968 6.4-34.304t17.664-23.296 26.368-13.312 32.512-4.352zM147.456 809.984q0 21.504 8.448 39.68t22.528 30.976 33.024 19.968 39.936 7.168q21.504 0 40.448-7.168t33.536-19.968 23.040-30.976 8.448-39.68-8.448-38.912-23.040-30.208-33.536-19.712-40.448-6.912q-20.992 0-39.936 6.912t-33.024 19.712-22.528 30.208-8.448 38.912zM201.728 809.984q0-22.016 13.568-36.096t37.12-14.080q22.528 0 36.352 14.080t13.824 36.096q0 23.040-13.824 36.864t-36.352 13.824q-23.552 0-37.12-13.824t-13.568-36.864z" />
<glyph unicode="&#xe6;" glyph-name="uniE6" horiz-adv-x="825" d="M585.216 663.552q41.984 0 78.592-16.64t63.744-47.872 42.496-76.288 15.36-102.4q0-22.528-4.608-30.208t-17.92-7.68h-319.488q2.56-45.056 14.080-78.336t30.72-55.296 45.568-33.024 58.624-11.008q35.328 0 58.624 7.424t38.656 16.128 25.088 16.128 18.432 7.424q13.824 0 20.48-9.216l25.6-33.28q-17.408-21.504-40.192-36.608t-48.64-25.088-52.992-14.592-53.76-4.608q-58.88 0-107.52 27.904t-77.824 86.272q-14.336-30.72-36.608-52.736t-49.408-35.84-57.6-20.224-61.184-6.4q-35.84 0-65.28 8.96t-50.688 27.136-32.768 45.568-11.52 64.256q0 30.72 16.64 60.16t54.272 53.248 98.304 39.168 149.248 17.408v24.064q0 58.88-25.344 90.368t-74.496 31.488q-33.28 0-55.552-8.704t-38.4-19.456-28.416-19.456-24.576-8.704q-10.24 0-17.152 5.376t-12.032 12.544l-17.408 31.744q43.52 40.96 90.368 61.44t105.216 20.48q60.928 0 98.304-25.344t54.784-70.4q27.648 44.032 72.448 69.376t105.728 25.344zM351.744 381.952q-61.44-2.56-104.448-11.264t-69.888-22.272-38.912-31.744-12.032-38.656q0-43.008 24.576-62.72t65.024-19.712q28.672 0 53.504 8.96t43.008 27.392 28.672 46.080 10.496 65.024v38.912zM581.12 592.384q-30.72 0-54.528-10.24t-40.96-29.696-27.392-47.36-13.824-62.72h254.976q0 32.256-7.936 59.648t-23.040 47.36-37.12 31.488-50.176 11.52z" />
<glyph unicode="&#xe7;" glyph-name="uniE7" horiz-adv-x="490" d="M216.064 8.192q3.072 0 7.168-1.792t9.728-3.84 13.056-3.84 18.176-1.792q20.48 0 31.232 8.192t10.752 20.992q0 18.944-20.992 26.368t-60.416 12.544l21.504 65.024q-44.032 4.608-81.408 24.32t-64.768 53.76-43.008 81.408-15.616 106.752q0 57.856 16.128 106.752t47.36 84.736 77.056 55.808 105.216 19.968q55.808 0 98.048-17.92t74.496-50.176l-25.6-35.84q-4.096-5.632-8.448-8.704t-12.032-3.072q-8.192 0-17.408 6.4t-22.528 13.824-32.768 13.824-47.616 6.4q-37.376 0-66.048-13.312t-47.872-38.4-28.928-60.416-9.728-79.872q0-46.080 10.496-81.92t29.696-60.416 46.592-37.376 61.184-12.8q32.768 0 53.76 7.936t34.816 17.152 23.296 17.152 19.2 7.936q12.288 0 18.432-9.216l27.648-35.328q-30.72-37.376-73.216-56.32t-90.624-23.040l-8.704-31.232q47.616-9.728 68.352-28.16t20.736-46.080q0-16.384-8.192-29.696t-23.296-22.528-35.84-14.336-45.824-5.12q-20.992 0-39.68 4.096t-35.072 11.264l9.216 30.208q3.072 9.728 12.288 9.728z" />
<glyph unicode="&#xe8;" glyph-name="uniE8" horiz-adv-x="542" d="M285.184 663.552q47.104 0 87.040-15.616t69.12-45.312 45.568-72.96 16.384-99.072q0-22.528-4.864-30.208t-18.176-7.68h-343.040q1.536-47.616 13.568-82.944t32.768-58.624 49.92-34.816 65.024-11.52q33.792 0 58.112 7.68t41.984 16.896 29.952 16.896 21.504 7.68q12.288 0 17.92-9.216l27.648-35.328q-17.92-21.504-41.472-36.608t-50.688-25.088-56.064-14.592-57.088-4.608q-53.76 0-99.584 18.176t-79.104 53.248-51.968 87.040-18.688 119.552q0 54.272 16.896 101.12t48.384 81.408 76.8 54.528 102.144 19.968zM286.72 592.384q-64 0-100.608-37.12t-45.824-102.656h275.968q0 30.72-8.704 56.32t-25.344 44.032-40.704 28.928-54.784 10.496zM237.056 878.592q17.408 0 25.856-5.632t15.616-17.408l75.776-123.904h-55.296q-11.264 0-18.688 3.328t-14.592 11.52l-120.32 132.096h91.648z" />
<glyph unicode="&#xe9;" glyph-name="uniE9" horiz-adv-x="542" d="M285.184 663.552q47.104 0 87.040-15.616t69.12-45.312 45.568-72.96 16.384-99.072q0-22.528-4.864-30.208t-18.176-7.68h-343.040q1.536-47.616 13.568-82.944t32.768-58.624 49.92-34.816 65.024-11.52q33.792 0 58.112 7.68t41.984 16.896 29.952 16.896 21.504 7.68q12.288 0 17.92-9.216l27.648-35.328q-17.92-21.504-41.472-36.608t-50.688-25.088-56.064-14.592-57.088-4.608q-53.76 0-99.584 18.176t-79.104 53.248-51.968 87.040-18.688 119.552q0 54.272 16.896 101.12t48.384 81.408 76.8 54.528 102.144 19.968zM286.72 592.384q-64 0-100.608-37.12t-45.824-102.656h275.968q0 30.72-8.704 56.32t-25.344 44.032-40.704 28.928-54.784 10.496zM440.832 878.592l-120.32-132.096q-7.168-8.192-14.592-11.52t-18.688-3.328h-58.368l75.776 123.904q7.168 11.776 15.616 17.408t25.856 5.632h94.72z" />
<glyph unicode="&#xea;" glyph-name="uniEA" horiz-adv-x="542" d="M285.184 663.552q47.104 0 87.040-15.616t69.12-45.312 45.568-72.96 16.384-99.072q0-22.528-4.864-30.208t-18.176-7.68h-343.040q1.536-47.616 13.568-82.944t32.768-58.624 49.92-34.816 65.024-11.52q33.792 0 58.112 7.68t41.984 16.896 29.952 16.896 21.504 7.68q12.288 0 17.92-9.216l27.648-35.328q-17.92-21.504-41.472-36.608t-50.688-25.088-56.064-14.592-57.088-4.608q-53.76 0-99.584 18.176t-79.104 53.248-51.968 87.040-18.688 119.552q0 54.272 16.896 101.12t48.384 81.408 76.8 54.528 102.144 19.968zM286.72 592.384q-64 0-100.608-37.12t-45.824-102.656h275.968q0 30.72-8.704 56.32t-25.344 44.032-40.704 28.928-54.784 10.496zM447.488 734.208h-65.024q-6.144 0-12.032 2.048t-12.032 8.192l-60.928 65.024q-4.096 3.584-8.704 9.728l-8.704-9.728-61.44-65.024q-11.264-10.24-24.064-10.24h-67.584l115.2 136.192h90.112z" />
<glyph unicode="&#xeb;" glyph-name="uniEB" horiz-adv-x="542" d="M285.184 663.552q47.104 0 87.040-15.616t69.12-45.312 45.568-72.96 16.384-99.072q0-22.528-4.864-30.208t-18.176-7.68h-343.040q1.536-47.616 13.568-82.944t32.768-58.624 49.92-34.816 65.024-11.52q33.792 0 58.112 7.68t41.984 16.896 29.952 16.896 21.504 7.68q12.288 0 17.92-9.216l27.648-35.328q-17.92-21.504-41.472-36.608t-50.688-25.088-56.064-14.592-57.088-4.608q-53.76 0-99.584 18.176t-79.104 53.248-51.968 87.040-18.688 119.552q0 54.272 16.896 101.12t48.384 81.408 76.8 54.528 102.144 19.968zM286.72 592.384q-64 0-100.608-37.12t-45.824-102.656h275.968q0 30.72-8.704 56.32t-25.344 44.032-40.704 28.928-54.784 10.496zM248.32 795.648q0-12.288-4.864-22.784t-13.056-18.432-19.2-12.544-23.296-4.608q-11.776 0-22.528 4.608t-18.688 12.544-12.8 18.432-4.864 22.784 4.864 23.552 12.8 19.456 18.688 13.056 22.528 4.864q12.288 0 23.296-4.864t19.2-13.056 13.056-19.456 4.864-23.552zM445.44 795.648q0-12.288-4.864-22.784t-12.8-18.432-18.944-12.544-23.296-4.608-23.040 4.608-18.944 12.544-12.8 18.432-4.608 22.784 4.608 23.552 12.8 19.456 18.944 13.056 23.040 4.864 23.296-4.864 18.944-13.056 12.8-19.456 4.864-23.552z" />
<glyph unicode="&#xec;" glyph-name="uniEC" horiz-adv-x="248" d="M172.544 655.36v-519.68h-97.28v519.68h97.28zM76.288 878.592q17.408 0 25.856-5.632t15.616-17.408l75.776-123.904h-55.296q-11.264 0-18.688 3.328t-14.592 11.52l-120.32 132.096h91.648z" />
<glyph unicode="&#xed;" glyph-name="uniED" horiz-adv-x="248" d="M173.056 655.36v-519.68h-97.28v519.68h97.28zM280.576 878.592l-120.32-132.096q-7.168-8.192-14.592-11.52t-18.688-3.328h-58.368l75.776 123.904q7.168 11.776 15.616 17.408t25.856 5.632h94.72z" />
<glyph unicode="&#xee;" glyph-name="uniEE" horiz-adv-x="248" d="M172.544 655.36v-519.68h-97.28v519.68h97.28zM286.72 734.208h-65.024q-6.144 0-12.032 2.048t-12.032 8.192l-60.928 65.024q-4.096 3.584-8.704 9.728l-8.704-9.728-61.44-65.024q-11.264-10.24-24.064-10.24h-67.584l115.2 136.192h90.112z" />
<glyph unicode="&#xef;" glyph-name="uniEF" horiz-adv-x="248" d="M172.544 655.36v-519.68h-97.28v519.68h97.28zM105.472 795.648q0-12.288-4.864-22.784t-13.312-18.432-19.456-12.544-23.296-4.608q-11.776 0-22.528 4.608t-18.688 12.544-12.8 18.432-4.864 22.784 4.864 23.552 12.8 19.456 18.688 13.056 22.528 4.864q12.288 0 23.296-4.864t19.456-13.056 13.312-19.456 4.864-23.552zM267.264 795.648q0-12.288-4.864-22.784t-12.8-18.432-18.944-12.544-23.296-4.608-23.296 4.608-18.944 12.544-12.8 18.432-4.864 22.784 4.864 23.552 12.8 19.456 18.944 13.056 23.296 4.864 23.296-4.864 18.944-13.056 12.8-19.456 4.864-23.552z" />
<glyph unicode="&#xf0;" glyph-name="uniF0" horiz-adv-x="580" d="M213.504 680.96q-6.656 9.728-4.608 18.688t12.288 15.104l50.688 33.792q-44.032 18.944-99.328 32.768-6.144 1.536-11.52 5.376t-8.448 9.472-3.584 13.568 3.072 17.664l11.264 34.304q49.664-8.192 96.256-23.808t88.064-40.704l86.016 61.952 18.944-31.232q5.632-9.216 3.328-17.92t-11.008-14.848l-48.128-32.256q30.72-25.088 55.552-57.088t42.752-71.424 27.648-86.528 9.728-102.4q0-73.728-16.128-132.352t-47.872-99.584-78.848-62.976-109.056-22.016q-50.688 0-94.464 16.896t-76.032 48.64-50.944 77.312-18.688 103.424q0 47.616 15.872 90.624t45.824 75.264 72.448 51.2 95.744 18.944q51.2 0 95.488-20.992t76.544-63.488q-10.24 66.56-39.168 113.408t-77.056 79.104l-94.72-68.608zM282.624 204.288q35.328 0 64 13.312t49.152 40.448 32 68.864 13.056 98.048q-8.192 21.504-21.504 41.472t-32 35.072-43.008 24.32-55.040 9.216q-37.376 0-65.792-12.544t-47.616-34.048-28.928-50.944-9.728-63.232q0-40.96 11.52-72.704t31.488-53.248 46.336-32.768 56.064-11.264z" />
</font>
</defs>
</svg>
